<svg width="213" height="217" viewBox="0 0 213 217" fill="none" xmlns="http://www.w3.org/2000/svg">
<path d="M31.1774 32.8413C22.6121 41.7266 15.8947 51.772 11.0254 62.9773" stroke="#729E86" stroke-width="2"/>
<path d="M11.025 62.9775C10.7904 63.6389 10.5451 64.0122 10.2891 64.0975" stroke="#639884" stroke-width="2"/>
<path d="M57.1938 13.7773C47.3591 18.8013 38.6871 25.156 31.1777 32.8413" stroke="#72A189" stroke-width="2"/>
<path d="M211.122 123.481C214.522 89.0412 204.794 56.5852 179.994 31.9932" stroke="#5C9B8A" stroke-width="2"/>
<path d="M179.993 31.9933C168.761 21.0706 155.729 13.0066 140.897 7.80127" stroke="#6FA490" stroke-width="2"/>
<path d="M140.897 7.80144C112.817 -2.39056 83.5294 0.241444 57.1934 13.7774" stroke="#74A58D" stroke-width="2"/>
<path d="M140.898 7.80127C139.271 9.1186 137.543 9.50527 135.714 8.96127C135.479 8.89194 135.247 8.89994 135.018 8.98527L128.618 11.3533C128.34 11.4546 128.202 11.6519 128.202 11.9453C128.202 13.4333 127.554 14.3773 126.258 14.7773C122.082 16.0733 118.21 18.4173 114.13 20.1053C113.314 20.4413 112.519 21.1693 111.746 22.2893C111.596 22.5026 111.647 22.6493 111.898 22.7293C112.943 23.0599 113.855 23.6279 114.634 24.4333C114.666 24.4706 114.682 24.5159 114.682 24.5693C114.676 24.6386 114.666 24.7079 114.65 24.7773C114.607 24.9159 114.658 24.9853 114.802 24.9853C115.994 24.9853 116.514 26.9133 115.762 27.0893" stroke="#AACCA2" stroke-width="2"/>
<path d="M115.762 27.0894L112.594 25.3774" stroke="#6E705C" stroke-width="2"/>
<path d="M112.594 25.3776C113.474 24.2736 111.034 23.6976 110.29 23.3856C105.111 21.2096 99.4418 20.0496 93.2818 19.9056C74.9538 19.4816 55.7939 24.7136 42.6979 37.8976C42.4152 38.1856 42.1272 38.6389 41.8338 39.2576C41.2258 40.5456 39.8178 41.3936 39.2258 42.2976C35.8338 47.4816 33.6498 53.1482 32.6738 59.2975" stroke="#D3CD9B" stroke-width="2"/>
<path d="M32.6734 59.2975C31.1854 59.4521 30.3907 58.9668 30.2894 57.8415C30.2771 57.7105 30.2335 57.5847 30.1625 57.4746C30.0915 57.3646 29.995 57.2736 29.8814 57.2095C28.6867 56.5375 27.6334 56.7135 26.7214 57.7375C26.5454 57.9348 26.3321 58.0788 26.0814 58.1695C25.6974 58.3055 15.3934 61.2095 15.2654 62.6255C15.2494 62.8601 15.1294 63.0121 14.9054 63.0815C14.2921 63.2788 13.6948 63.2068 13.1134 62.8655C12.8521 62.7161 12.6521 62.7748 12.5134 63.0415L12.2494 63.5215C12.0467 63.9055 11.8067 63.9295 11.5294 63.5935L11.0254 62.9775" stroke="#A0C89C" stroke-width="2"/>
<path d="M179.994 31.9931L179.578 32.9451C179.434 33.2918 179.548 33.4651 179.922 33.4651H180.29C180.333 33.4678 180.374 33.4849 180.406 33.5137C180.438 33.5425 180.46 33.5813 180.467 33.6239C180.474 33.6664 180.467 33.7102 180.447 33.7481C180.426 33.7861 180.393 33.8161 180.354 33.8331C179.372 34.1958 178.692 34.1425 178.314 33.6731C178.138 33.4491 177.911 33.2998 177.634 33.2251C176.439 32.8998 175.383 32.3238 174.466 31.4971C174.263 31.3105 174.05 31.2998 173.826 31.4651C172.658 32.3291 172.444 33.4145 173.186 34.7211C173.218 34.7798 173.212 34.8331 173.17 34.8811C173.111 34.9398 173.063 34.9904 173.026 35.0331C173.02 35.04 173.018 35.0485 173.018 35.0571C173.018 35.0658 173.02 35.0742 173.026 35.0811C173.959 36.4038 174.948 37.6758 175.994 38.8971C176.159 39.0891 176.18 39.2971 176.058 39.5211C175.924 39.7611 175.852 40.0358 175.842 40.3451" stroke="#92C39F" stroke-width="2"/>
<path d="M175.841 40.3452C172.246 36.0092 167.868 32.7799 162.705 30.6572" stroke="#60695A" stroke-width="2"/>
<path d="M162.706 30.6575C152.999 25.7561 143.367 25.8308 133.81 30.8815" stroke="#797865" stroke-width="2"/>
<path d="M133.81 30.8814C130.54 32.8974 127.791 35.3294 125.562 38.1774C125.364 38.4334 125.191 38.4174 125.042 38.1294C122.727 33.708 119.634 30.028 115.762 27.0894" stroke="#6A6F5F" stroke-width="2"/>
<path d="M112.594 25.3773L107.521 23.4653" stroke="#937058" stroke-width="2"/>
<path d="M107.522 23.4651C85.0977 16.9451 54.8577 25.6411 40.3857 44.1611" stroke="#A2795E" stroke-width="2"/>
<path d="M40.3858 44.1611C36.6631 49.4305 34.2738 55.2865 33.2178 61.7291" stroke="#9B755B" stroke-width="2"/>
<path d="M33.2172 61.7294C32.1079 62.4067 31.9266 61.596 32.6732 59.2974" stroke="#C4C898" stroke-width="2"/>
<path d="M107.521 23.4653C106.257 24.9373 109.409 25.2973 110.329 25.7933" stroke="#3D1C1F" stroke-width="2"/>
<path d="M110.33 25.7935C110.175 26.1295 110.204 26.5108 110.418 26.9375C110.471 27.0436 110.489 27.1643 110.469 27.2822C110.449 27.4001 110.392 27.5091 110.306 27.5935C109.671 28.2228 108.916 28.4441 108.042 28.2575C107.834 28.2148 107.642 28.2521 107.466 28.3695C106.452 29.0308 105.324 29.3881 104.082 29.4415C103.922 29.449 103.769 29.5077 103.647 29.6087C103.524 29.7098 103.438 29.8476 103.402 30.0015L103.194 30.8655C103.163 30.9933 103.095 31.1092 103 31.1988C102.905 31.2884 102.786 31.3477 102.658 31.3695C90.8335 33.2681 79.6016 36.9215 68.9616 42.3295C66.1696 43.7455 63.3295 45.8975 60.4655 47.6335C60.383 47.6864 60.2849 47.7097 60.1873 47.6996C60.0898 47.6894 59.9986 47.6463 59.9288 47.5774C59.859 47.5085 59.8146 47.4179 59.8032 47.3205C59.7917 47.2231 59.8136 47.1247 59.8655 47.0415L61.1055 44.8895C61.1486 44.8203 61.1663 44.7383 61.1556 44.6576C61.145 44.5768 61.1067 44.5023 61.0472 44.4466C60.9878 44.3909 60.9109 44.3576 60.8296 44.3523C60.7483 44.347 60.6677 44.37 60.6015 44.4175C56.4495 47.2495 54.1775 50.0095 51.9375 54.4335C50.9935 56.2895 49.5856 57.7641 47.7136 58.8575C47.6615 58.8882 47.6034 58.9075 47.5431 58.914C47.4828 58.9205 47.4216 58.9142 47.3636 58.8953C47.3055 58.8764 47.2518 58.8455 47.206 58.8046C47.1602 58.7636 47.1232 58.7135 47.0975 58.6575L45.8175 55.7535C45.7108 55.5028 45.7189 55.2575 45.8415 55.0175C48.1242 50.6921 51.1802 47.0175 55.0095 43.9935C55.1166 43.9089 55.1898 43.7885 55.2161 43.6537C55.2425 43.5189 55.2203 43.3785 55.1535 43.2575C54.9935 42.9748 54.7508 42.9535 54.4255 43.1935C48.5695 47.5615 44.5109 53.2361 42.2495 60.2175C42.1749 60.4521 42.0229 60.6228 41.7935 60.7295L38.6975 62.1055C38.5429 62.1731 38.3685 62.1793 38.2105 62.1227C38.0526 62.0661 37.9233 61.951 37.8495 61.8015C37.3162 60.7241 36.4709 60.0281 35.3136 59.7135C34.9989 59.6281 34.8762 59.4255 34.9455 59.1055C35.9429 54.4815 37.7215 50.1935 40.2815 46.2415C40.5855 45.7775 40.6202 45.0841 40.3855 44.1615" stroke="#452122" stroke-width="2"/>
<path d="M95.3137 24.8653C95.4295 24.7733 95.5133 24.6476 95.5535 24.5056C95.5938 24.3636 95.5885 24.2123 95.5385 24.0726C95.4884 23.933 95.396 23.8118 95.274 23.7259C95.152 23.6401 95.0066 23.5937 94.8577 23.5933C84.6417 23.6413 73.2897 25.6653 66.2977 33.3933C66.277 33.4191 66.2649 33.4508 66.263 33.4839C66.261 33.517 66.2694 33.5498 66.287 33.5779C66.3045 33.606 66.3304 33.628 66.361 33.6408C66.3915 33.6535 66.4254 33.6565 66.4577 33.6493C75.215 31.2439 83.9377 28.7559 92.6257 26.1853C93.735 25.8599 94.631 25.4199 95.3137 24.8653Z" stroke="#A2795E" stroke-width="2"/>
<path d="M133.81 30.8813C134.061 33.0627 132.997 34.9427 130.618 36.5214C130.38 36.6817 130.207 36.9198 130.13 37.1934C129.863 38.1854 130.106 38.844 130.858 39.1693C130.964 39.2144 131.059 39.2819 131.137 39.3674C131.216 39.4528 131.276 39.5543 131.314 39.6654L131.946 41.5453C131.983 41.6567 132.061 41.75 132.165 41.8063C132.268 41.8627 132.39 41.8781 132.506 41.8494C136.818 40.8574 140.962 40.8334 145.482 40.4734C149.626 40.1534 154.034 42.2014 157.906 44.2974C158.362 44.5454 159.202 44.4253 159.642 44.1373C159.829 44.02 160.013 44.02 160.194 44.1373C161.554 45.0387 162.69 44.8814 163.602 43.6654C163.794 43.4094 163.89 43.1213 163.89 42.8013V41.9453C163.89 41.6627 164.031 41.5373 164.314 41.5693C164.81 41.6333 165.29 41.764 165.754 41.9614C169.226 43.4414 169.29 38.4574 171.13 36.7214" stroke="#3D1C1F" stroke-width="2"/>
<path d="M171.13 36.7217C176.026 41.2977 179.351 46.479 181.106 52.2657C182.93 58.271 183.533 64.7403 182.914 71.6737C182.893 71.855 182.81 72.0017 182.666 72.1137L182.218 72.4417C181.946 72.639 181.823 72.9057 181.85 73.2417C182.133 76.9803 181.501 80.5484 179.954 83.9457C179.799 84.2817 179.679 84.2683 179.594 83.9057L179.418 83.1777C179.381 83.0123 179.279 82.919 179.114 82.8977C178.133 82.7697 177.295 82.3243 176.602 81.5617C176.521 81.4736 176.46 81.3692 176.421 81.255C176.383 81.1407 176.368 81.0191 176.378 80.8977C176.565 78.4817 176.49 76.0684 176.154 73.6577C176.095 73.247 175.967 73.223 175.77 73.5857C174.258 76.3377 175.138 79.0817 174.154 81.7057C174.063 81.9617 173.885 82.0577 173.618 81.9937C172.957 81.8284 172.309 81.9403 171.674 82.3297C171.461 82.463 171.234 82.4844 170.994 82.3937L168.194 81.3057C167.815 81.1617 167.581 81.287 167.49 81.6817C167.469 81.7937 167.402 81.8843 167.29 81.9537C166.965 82.167 166.81 82.079 166.826 81.6897L166.874 80.0417C166.879 79.839 166.783 79.7137 166.586 79.6657C166.01 79.5377 165.762 79.271 165.842 78.8657C165.889 78.6152 165.861 78.3564 165.762 78.1217C164.727 75.631 163.527 73.2283 162.162 70.9137C161.21 69.2897 157.802 65.3457 156.242 64.4177C147.85 59.4337 139.418 57.0737 130.69 54.0257C127.794 53.0097 123.386 50.8337 123.034 47.3537C123.013 47.1563 122.901 47.063 122.698 47.0737C120.767 47.191 119.535 47.559 119.002 48.1777C106.674 62.5057 87.1139 61.4657 71.1699 68.8577C64.7139 71.8497 57.1219 71.3697 53.2979 78.8097C52.0979 81.1457 51.218 87.1857 51.41 89.8257C51.746 94.5243 51.4713 99.2043 50.5859 103.866C50.5379 104.127 50.3886 104.303 50.1379 104.394C48.0819 105.162 48.458 107.482 45.562 106.802C45.306 106.743 45.0526 106.756 44.802 106.842C43.9113 107.151 43.1566 106.911 42.5379 106.122C42.3619 105.892 42.2846 105.634 42.306 105.346C42.37 104.492 42.2099 103.551 41.8259 102.522C39.2713 95.7377 36.8579 88.0737 34.5859 79.5297" stroke="#240D14" stroke-width="2"/>
<path d="M34.5859 79.5295C36.3726 80.1321 37.0073 78.8415 36.4899 75.6575C36.4366 75.3161 36.578 75.1134 36.914 75.0494L39.6739 74.5055C39.7296 74.4937 39.781 74.4683 39.823 74.4318C39.8651 74.3954 39.8965 74.349 39.914 74.2974L40.754 72.0575C40.8553 71.7801 41.0393 71.7001 41.306 71.8175C44.458 73.2095 45.6179 70.7614 47.3219 68.3374C48.1593 67.1374 48.6313 65.7721 48.7379 64.2415C48.7539 64.0085 48.8107 63.7784 48.906 63.5614L50.114 60.8734C50.2206 60.6388 50.3753 60.4468 50.5779 60.2974C52.1619 59.1614 54.882 54.3295 56.61 54.9295C56.7454 54.9768 56.8666 55.0577 56.9623 55.1647C57.0579 55.2717 57.1249 55.4011 57.1568 55.541C57.1888 55.6809 57.1848 55.8266 57.1451 55.9645C57.1054 56.1024 57.0314 56.228 56.9299 56.3295C55.0419 58.2175 53.57 60.4654 53.306 63.0494C53.186 64.2734 51.746 64.4415 51.81 65.9695C51.8116 66.0309 51.8298 66.0905 51.8629 66.1422C51.8961 66.194 51.9428 66.2359 51.9983 66.2636C52.0538 66.2913 52.116 66.3039 52.1785 66.3C52.2411 66.2961 52.3016 66.2759 52.354 66.2415C65.506 57.3135 79.6339 52.5695 96.2419 46.0015C99.7939 44.5988 103.423 43.4255 107.13 42.4815C109.33 41.9215 111.61 40.8095 114.082 40.3775C114.365 40.3241 114.573 40.1721 114.706 39.9215C115.314 38.7855 116.245 38.0815 117.498 37.8095C117.667 37.7742 117.819 37.6854 117.933 37.5564C118.048 37.4273 118.117 37.2649 118.131 37.0932C118.146 36.9215 118.104 36.7497 118.013 36.6035C117.922 36.4572 117.786 36.3443 117.626 36.2815C114.053 34.8841 110.319 34.2761 106.426 34.4575C106.246 34.4684 106.069 34.4171 105.924 34.3123C105.778 34.2074 105.673 34.0552 105.626 33.8812C105.58 33.7071 105.594 33.5216 105.666 33.3557C105.739 33.1898 105.866 33.0535 106.026 32.9695C108.85 31.4895 113.858 34.0895 116.45 33.0495C116.772 32.9204 117.057 32.7084 117.275 32.437C117.493 32.1657 117.634 31.8456 117.683 31.5124C117.732 31.1791 117.686 30.8458 117.552 30.5494C117.418 30.253 117.2 30.0052 116.922 29.8335L110.33 25.7935" stroke="#36181C" stroke-width="2"/>
<path d="M34.5858 79.5293C34.0045 74.1586 33.8392 68.9879 34.0898 64.0173C34.1112 63.6759 33.9618 63.5666 33.6418 63.6893C33.3538 63.7959 33.0312 64.2119 32.6738 64.9373" stroke="#2C1217" stroke-width="2"/>
<path d="M32.6738 64.9375L33.2178 61.7295" stroke="#68705C" stroke-width="2"/>
<path d="M162.705 30.6572L171.129 36.7212" stroke="#33161A" stroke-width="2"/>
<path d="M175.842 40.3452C177.778 42.5639 179.407 45.0839 180.73 47.9052" stroke="#4C6054" stroke-width="2"/>
<path d="M180.729 47.9053C189.153 67.7053 182.521 88.7373 173.089 106.601C172.956 106.852 173.025 107.025 173.297 107.121C179.047 109.18 183.489 112.913 186.625 118.321" stroke="#3C5550" stroke-width="2"/>
<path d="M186.626 118.321C194.714 131.305 196.442 147.497 189.77 161.569" stroke="#4C6054" stroke-width="2"/>
<path d="M189.77 161.569C179.666 179.633 161.402 186.361 141.298 183.961" stroke="#3C5550" stroke-width="2"/>
<path d="M141.298 183.961L139.994 183.841C139.701 183.815 139.495 183.665 139.378 183.393C135.874 175.335 130.013 169.7 121.794 166.489" stroke="#604C28" stroke-width="2"/>
<path d="M121.793 166.49L119.393 166.074C119.105 166.026 118.881 166.122 118.721 166.362C118.364 166.9 118.007 166.988 117.649 166.626" stroke="#42291A" stroke-width="2"/>
<path d="M117.649 166.625C118.569 165.097 115.481 165.249 114.153 165.113" stroke="#7E422B" stroke-width="2"/>
<path d="M114.154 165.113C113.178 163.935 113.007 162.537 113.642 160.921" stroke="#753C31" stroke-width="2"/>
<path d="M113.642 160.922C131.274 159.546 150.354 153.242 158.826 136.098C158.996 135.746 159.252 135.666 159.594 135.858L161.41 136.858C161.666 137.002 161.935 137.106 162.218 137.17C170.308 138.988 176.506 136.916 180.81 130.954C184.97 125.186 184.89 118.97 180.05 113.706C177.842 111.314 173.154 108.65 169.962 110.258C167.394 111.554 166.194 116.45 166.074 119.002" stroke="#894E3A" stroke-width="2"/>
<path d="M166.073 119.001C166.073 121.028 166.327 122.988 166.833 124.881C167.26 126.455 166.74 126.983 165.273 126.465C165.054 126.387 164.86 126.252 164.713 126.073C162.927 123.892 161.572 121.127 160.649 117.777" stroke="#824534" stroke-width="2"/>
<path d="M160.65 117.778L160.346 109.474" stroke="#8B5D48" stroke-width="2"/>
<path d="M160.346 109.473C160.922 96.7799 160.914 87.6466 160.322 82.0733C159.538 74.7373 154.618 71.3373 147.722 68.7533C137.954 65.0893 129.538 61.5533 122.09 53.9533C121.887 53.7506 121.695 53.7559 121.514 53.9693C112.658 64.3453 96.5216 68.0893 83.0576 70.2253" stroke="#894E3A" stroke-width="2"/>
<path d="M83.0575 70.2256C72.9028 71.9909 66.3774 73.3296 63.4814 74.2416C55.6334 76.7216 53.2734 83.2976 53.2734 90.8656C53.2734 97.8629 53.2841 104.844 53.3055 111.81" stroke="#8B5D48" stroke-width="2"/>
<path d="M53.3053 111.81C52.9053 111.906 52.7292 111.794 52.7772 111.474" stroke="#824534" stroke-width="2"/>
<path d="M52.7773 111.473C48.5 109.255 44.5694 109.212 40.9854 111.345" stroke="#894E3A" stroke-width="2"/>
<path d="M40.9861 111.345C33.5221 114.217 30.4981 121.497 33.3701 129.121" stroke="#896A53" stroke-width="2"/>
<path d="M33.3691 129.122C38.5478 137.02 45.7692 139.154 55.0332 135.522" stroke="#894E3A" stroke-width="2"/>
<path d="M55.0341 135.521C54.8421 135.217 55.0181 135.068 55.5621 135.073" stroke="#824534" stroke-width="2"/>
<path d="M55.5615 135.073C60.6655 149.673 75.3935 156.881 89.8975 159.449" stroke="#8B6351" stroke-width="2"/>
<path d="M89.8975 159.449L98.1694 160.713" stroke="#894E3A" stroke-width="2"/>
<path d="M98.17 160.713C98.1913 162.004 97.9406 163.183 97.418 164.249" stroke="#753C31" stroke-width="2"/>
<path d="M97.4172 164.249C97.0599 164.66 96.6253 164.873 96.1133 164.889" stroke="#7E422B" stroke-width="2"/>
<path d="M96.1141 164.89L93.082 165.466" stroke="#854A30" stroke-width="2"/>
<path d="M93.0814 165.465L88.4414 166.609" stroke="#42291A" stroke-width="2"/>
<path d="M88.4418 166.609L82.6738 169.057" stroke="#604C28" stroke-width="2"/>
<path d="M82.6739 169.058C72.3539 173.802 69.3539 195.29 68.7939 205.298" stroke="#8B6351" stroke-width="2"/>
<path d="M68.7939 205.297C68.4019 203.513 68.3939 201.673 67.4819 200.057C58.4339 184.041 45.0739 171.033 32.2659 159.089C27.1032 154.268 22.9885 148.86 19.9219 142.865" stroke="#3C5550" stroke-width="2"/>
<path d="M19.9221 142.865C17.6714 137.953 16.0848 132.812 15.1621 127.441" stroke="#566454" stroke-width="2"/>
<path d="M15.1619 127.441L15.0898 126.097" stroke="#8B755E" stroke-width="2"/>
<path d="M15.0898 126.097C15.2125 125.948 15.3645 125.871 15.5458 125.865C15.6583 125.861 15.769 125.895 15.8594 125.964C15.9498 126.032 16.0143 126.13 16.0418 126.241C17.3378 131.847 19.2952 137.196 21.9139 142.289C22.8819 144.177 24.4578 144.657 26.3858 144.137C26.6898 144.057 26.8365 143.86 26.8258 143.545C26.7538 141.033 26.2178 135.441 29.0418 134.817C29.0978 134.806 29.1508 134.784 29.198 134.752C29.2452 134.719 29.2856 134.678 29.3168 134.629C29.3481 134.581 29.3696 134.527 29.38 134.47C29.3905 134.413 29.3897 134.354 29.3778 134.297C28.6658 130.865 27.2258 123.049 30.2178 121.169C30.4205 121.047 30.5592 120.873 30.6338 120.649C32.0525 116.596 34.3165 113.105 37.4258 110.177C37.6445 109.975 37.7298 109.727 37.6818 109.433C37.4045 107.737 37.8898 106.284 39.1378 105.073C39.2274 104.986 39.2963 104.881 39.3392 104.764C39.3821 104.648 39.3981 104.524 39.3858 104.401C39.0392 100.401 38.1619 96.5321 36.7539 92.7934C36.6739 92.5854 36.5245 92.4654 36.3059 92.4334L33.8178 92.0654" stroke="#240D14" stroke-width="2"/>
<path d="M33.8174 92.0653L35.6174 91.3773C35.7443 91.3266 35.8544 91.2412 35.9351 91.1308C36.0157 91.0205 36.0636 90.8897 36.0734 90.7533C36.0947 90.3107 35.9241 89.8813 35.5614 89.4653" stroke="#8B755E" stroke-width="2"/>
<path d="M35.562 89.4655C33.546 81.1135 31.8659 74.5135 32.6739 64.9375" stroke="#566454" stroke-width="2"/>
<path d="M211.122 123.481C210.38 130.921 208.842 138.175 206.506 145.241" stroke="#5A9886" stroke-width="2"/>
<path d="M206.505 145.241C204.415 151.337 201.809 157.233 198.689 162.929" stroke="#588B7C" stroke-width="2"/>
<path d="M198.69 162.929C198.05 162.951 197.532 162.716 197.138 162.225C196.978 162.028 196.78 161.972 196.546 162.057L195.978 162.273C195.919 162.294 195.857 162.3 195.795 162.291C195.734 162.283 195.676 162.259 195.625 162.223C195.575 162.187 195.534 162.139 195.506 162.084C195.479 162.028 195.465 161.967 195.466 161.905C195.498 160.711 195.212 159.639 194.61 158.689C194.45 158.449 194.252 158.412 194.018 158.577L191.578 160.321C191.418 160.433 191.287 160.577 191.186 160.753C190.892 161.265 190.42 161.537 189.77 161.569" stroke="#6EAF95" stroke-width="2"/>
<path d="M186.625 118.321C186.999 118.012 187.463 117.911 188.017 118.017C188.3 118.071 188.511 117.975 188.65 117.729C202.09 93.9373 201.409 67.6013 184.617 45.5373C184.534 45.4287 184.419 45.349 184.287 45.3093C184.156 45.2697 184.016 45.2721 183.886 45.3162C183.757 45.3603 183.644 45.4439 183.564 45.5553C183.484 45.6667 183.441 45.8003 183.442 45.9373C183.442 46.4813 183.178 46.7293 182.65 46.6813C182.383 46.66 182.18 46.764 182.042 46.9933C181.695 47.548 181.257 47.852 180.729 47.9053" stroke="#6EAF95" stroke-width="2"/>
<path d="M160.346 109.473L160.298 107.417C160.292 107.204 160.188 107.084 159.986 107.057L159.73 107.025C159.468 106.988 159.332 106.838 159.322 106.577C159.274 105.497 158.698 104.673 158.706 103.657C158.727 97.8118 158.644 91.9612 158.458 86.1052C158.226 78.8092 156.858 73.6811 149.818 71.2971C144.98 69.6598 140.799 68.1158 137.274 66.6652C131.858 64.4332 126.738 60.8171 121.594 57.5851C121.373 57.4466 121.106 57.4007 120.85 57.4572C119.788 57.6918 119.111 58.3051 118.818 59.2971C118.738 59.5745 118.578 59.7958 118.338 59.9611C108.418 66.9131 95.6176 70.4331 83.3696 71.9851C83.1669 72.0118 83.0656 71.9211 83.0656 71.7131L83.0576 70.2251" stroke="#FAA472" stroke-width="2"/>
<path d="M35.5617 89.4653C28.1057 92.0253 22.5323 96.7213 18.8417 103.553C14.1697 112.209 13.6497 117.953 14.2417 128.057C14.247 128.164 14.303 128.223 14.4097 128.233L14.6097 128.265C14.8657 128.297 15.0176 128.185 15.0656 127.929L15.1617 127.441" stroke="#C7D3A3" stroke-width="2"/>
<path d="M19.9218 142.865C19.8045 142.988 19.6552 143.063 19.4738 143.089C19.1965 143.121 18.9912 143.012 18.8579 142.761C16.7512 138.729 15.3218 134.465 14.5698 129.969C14.5485 129.841 14.4738 129.777 14.3458 129.777C14.0258 129.783 13.7165 129.655 13.4178 129.393C9.76982 126.193 9.40183 131.681 6.42583 131.705C6.16983 131.705 5.96983 131.815 5.82583 132.033L4.77783 133.593C4.61783 133.833 4.4525 133.836 4.28184 133.601C4.00984 133.233 3.68185 132.988 3.29785 132.865" stroke="#77B395" stroke-width="2"/>
<path d="M3.29775 132.865C-1.01158 109.297 1.31908 86.3745 10.2897 64.0972" stroke="#629380" stroke-width="2"/>
<path d="M15.4596 85.7721C15.4401 85.637 15.3854 85.5082 15.2986 85.3932C15.2117 85.2783 15.0945 85.1793 14.9535 85.1021C14.8125 85.0248 14.6506 84.9707 14.477 84.943C14.3033 84.9152 14.1213 84.9142 13.9414 84.9401C13.5781 84.9925 13.2453 85.1511 13.0163 85.3812C12.7872 85.6112 12.6806 85.8939 12.7199 86.1668C12.7394 86.302 12.7941 86.4308 12.8809 86.5458C12.9677 86.6607 13.085 86.7597 13.226 86.8369C13.3669 86.9142 13.5289 86.9683 13.7025 86.996C13.8762 87.0238 14.0582 87.0248 14.2381 86.9989C14.6014 86.9465 14.9342 86.7878 15.1632 86.5578C15.3923 86.3277 15.4989 86.0451 15.4596 85.7721Z" stroke="#C1D5A9" stroke-width="2"/>
<path d="M160.65 117.777C159.61 119.644 159.18 121.884 159.362 124.497" stroke="#F39B6D" stroke-width="2"/>
<path d="M159.361 124.497C159.009 124.817 158.681 124.996 158.377 125.033" stroke="#FAA472" stroke-width="2"/>
<path d="M158.377 125.033L158.457 124.625C158.521 124.332 158.404 124.159 158.105 124.105C156.366 123.78 154.649 123.415 152.953 123.009C152.802 122.974 152.66 122.906 152.537 122.81C152.415 122.714 152.315 122.592 152.245 122.453C152.175 122.314 152.136 122.162 152.131 122.006C152.126 121.851 152.156 121.696 152.217 121.553C152.377 121.18 152.286 121.023 151.945 121.081C151.705 121.129 151.569 121.273 151.537 121.513C151.324 123.055 150.462 124.055 148.953 124.513" stroke="#FCBA8A" stroke-width="2"/>
<path d="M148.954 124.513C148.735 124.076 148.703 123.671 148.858 123.297" stroke="#FAD4BA" stroke-width="2"/>
<path d="M148.857 123.297C149.817 122.62 150.46 121.772 150.785 120.753C150.871 120.492 150.871 120.233 150.785 119.977C149.143 114.777 145.599 111.356 140.153 109.713" stroke="#945E45" stroke-width="2"/>
<path d="M140.154 109.713C131.146 106.537 123.458 114.569 127.722 123.441" stroke="#C76B4C" stroke-width="2"/>
<path d="M127.722 123.441L126.81 123.857" stroke="#FAD4BA" stroke-width="2"/>
<path d="M126.81 123.857C126.682 123.543 126.548 123.295 126.41 123.113C126.365 123.048 126.297 123.004 126.219 122.99C126.142 122.976 126.062 122.993 125.998 123.037C125.933 123.082 125.888 123.15 125.874 123.227C125.86 123.305 125.877 123.384 125.922 123.449C127.164 125.417 128.783 126.985 130.778 128.153C131.242 128.425 131.204 128.583 130.666 128.625C129.058 128.753 128.586 126.553 127.082 126.265C126.831 126.217 126.602 126.119 126.394 125.969L123.962 124.201C123.759 124.052 123.532 124.012 123.282 124.081C122.194 124.396 121.423 124.039 120.97 123.009C120.919 122.89 120.829 122.793 120.714 122.733C120.6 122.674 120.468 122.657 120.341 122.684C120.214 122.711 120.1 122.782 120.018 122.883C119.936 122.985 119.89 123.111 119.89 123.241V124.465C119.89 124.796 119.772 124.847 119.538 124.617L119.202 124.273C119.01 124.087 118.761 123.974 118.498 123.953C116.103 123.788 113.738 123.54 111.402 123.209C111.327 123.198 111.259 123.164 111.205 123.111C111.152 123.058 111.117 122.99 111.105 122.915C111.094 122.841 111.106 122.765 111.141 122.699C111.175 122.632 111.23 122.578 111.298 122.545L111.658 122.377C111.866 122.281 111.922 122.129 111.826 121.921C110.746 119.633 108.906 120.801 107.042 120.465C106.919 120.441 106.792 120.452 106.675 120.496C106.558 120.54 106.455 120.615 106.378 120.713C105.738 121.508 105.039 121.705 104.282 121.305C102.484 120.351 100.836 120.217 99.3375 120.905C99.226 120.956 99.1036 120.977 98.9828 120.966C98.8619 120.954 98.747 120.911 98.6496 120.841C96.7189 119.439 94.8709 119.495 93.1056 121.009C92.9349 121.153 92.7376 121.225 92.5136 121.225C91.5056 121.233 88.9135 122.233 88.3295 121.225C88.2175 121.028 88.1295 121.039 88.0655 121.257C87.2069 124.201 85.4415 126.308 82.7695 127.577" stroke="#FCBA8A" stroke-width="2"/>
<path d="M82.7695 127.578C82.7428 126.65 82.4655 126.196 81.9375 126.218" stroke="#FAD4BA" stroke-width="2"/>
<path d="M81.9375 126.218C84.5508 125.023 85.8441 123.242 85.8175 120.874" stroke="#B46D4D" stroke-width="2"/>
<path d="M85.8173 120.873C86.1747 118.836 85.828 116.793 84.7773 114.745" stroke="#945E45" stroke-width="2"/>
<path d="M84.7781 114.745C85.5674 113.935 84.7514 112.847 82.3301 111.481" stroke="#A4664A" stroke-width="2"/>
<path d="M82.3301 111.481C82.9328 111.332 83.3061 111.02 83.4501 110.545C83.5408 110.236 83.4501 109.991 83.1781 109.809L81.5701 108.713C81.3461 108.559 81.0954 108.473 80.8181 108.457C71.3781 107.961 62.7702 111.369 60.8102 121.409C60.7622 121.655 60.6555 121.873 60.4901 122.065C58.4261 124.529 57.4768 127.079 57.6421 129.713C57.7328 131.089 57.7328 132.161 57.6421 132.929C57.632 133.014 57.5937 133.092 57.5333 133.152C57.473 133.211 57.3943 133.249 57.3099 133.258C57.2255 133.267 57.1405 133.248 57.0686 133.203C56.9967 133.157 56.9423 133.089 56.9142 133.009C56.4928 131.831 56.2048 130.633 56.0501 129.417C56.0128 129.156 55.8635 129.036 55.6021 129.057C55.4261 129.079 55.2235 129.167 54.9941 129.321" stroke="#FCBA8A" stroke-width="2"/>
<path d="M54.9937 129.322L53.3057 111.81" stroke="#F39B6D" stroke-width="2"/>
<path d="M64.5936 98.9055C62.5056 101.13 60.6656 102.682 62.2736 105.394C62.307 105.451 62.3542 105.499 62.411 105.534C62.4678 105.569 62.5325 105.589 62.5995 105.593C62.6666 105.597 62.7339 105.585 62.7956 105.557C62.8574 105.529 62.9116 105.487 62.9536 105.434C66.8336 100.322 70.2897 96.4255 77.0097 96.5375C78.7217 96.5695 80.8416 97.4015 82.8736 97.5055C83.1456 97.5215 83.3856 97.4362 83.5936 97.2495C86.3136 94.8175 83.5296 91.4415 80.6656 91.5855C74.2389 91.9108 68.8816 94.3509 64.5936 98.9055Z" stroke="#945E45" stroke-width="2"/>
<path d="M130.698 91.7613C124.97 91.0973 124.482 99.1293 130.346 97.5533C138.322 95.4093 144.146 99.0653 148.682 105.441C148.858 105.687 149.06 105.711 149.29 105.513C150.74 104.26 150.78 102.876 149.41 101.361C144.375 95.8199 138.138 92.6199 130.698 91.7613Z" stroke="#945E45" stroke-width="2"/>
<path d="M3.29785 132.865L5.24985 140.865" stroke="#48847C" stroke-width="2"/>
<path d="M33.8181 92.0654C19.8421 96.9774 13.3542 112.041 15.0902 126.097" stroke="#957C63" stroke-width="2"/>
<path d="M32.0974 98.5694C24.5054 102.089 17.4574 113.497 18.8974 122.177C18.9507 122.503 19.1294 122.604 19.4334 122.481C20.7774 121.943 21.9507 120.953 22.9534 119.513C24.7934 116.857 40.0494 96.8014 32.4814 98.4414C32.3485 98.468 32.2196 98.511 32.0974 98.5694Z" stroke="#703F27" stroke-width="2"/>
<path d="M82.3302 111.481C73.2662 104.881 54.7062 119.193 65.1062 125.209" stroke="#A46C53" stroke-width="2"/>
<path d="M65.1055 125.209C66.6201 127.273 68.2948 128.201 70.1294 127.993" stroke="#D79564" stroke-width="2"/>
<path d="M70.1299 127.993C74.4232 129.07 78.6365 128.932 82.7699 127.577" stroke="#FADBC3" stroke-width="2"/>
<path d="M126.81 123.857C128.767 126.369 131.172 127.855 134.026 128.313C138.346 129.009 145.858 128.169 148.954 124.513" stroke="#FADBC3" stroke-width="2"/>
<path d="M158.377 125.033C155.809 135.225 150.665 139.425 142.641 145.801C134.409 152.337 123.689 156.153 113.481 158.129C109.657 158.873 105.433 158.745 101.401 158.857C95.6811 159.017 90.9291 158.065 85.5931 156.681C85.5352 156.665 85.4741 156.669 85.4188 156.691C85.3635 156.714 85.3168 156.754 85.2856 156.806C85.2543 156.857 85.2402 156.918 85.2451 156.979C85.2501 157.04 85.2739 157.099 85.3131 157.145C85.7345 157.636 86.2758 157.975 86.9371 158.161C87.1451 158.22 87.3557 158.252 87.5691 158.257C88.4757 158.268 89.2518 158.665 89.8971 159.449" stroke="#FAAB7C" stroke-width="2"/>
<path d="M55.5622 135.073L54.9941 129.321" stroke="#F3A276" stroke-width="2"/>
<path d="M108.482 135.921C105.922 136.433 104.754 137.129 101.866 135.569C101.818 135.543 101.762 135.533 101.707 135.542C101.652 135.55 101.602 135.577 101.565 135.618C101.527 135.658 101.504 135.71 101.499 135.765C101.494 135.82 101.508 135.875 101.538 135.921C102.93 138.097 106.746 137.185 108.578 136.177C109.101 135.884 109.069 135.799 108.482 135.921Z" stroke="#E69973" stroke-width="2"/>
<path d="M96.3134 144.538C95.9721 144.068 95.5081 143.628 94.9214 143.218C94.4521 142.892 94.3721 142.97 94.6814 143.45C98.2894 149.026 102.849 153.154 110.025 150.986C113.108 150.058 115.247 147.882 116.441 144.458" stroke="#A7634D" stroke-width="2"/>
<path d="M116.441 144.458C116.969 143.748 117.236 143.364 117.241 143.306C117.401 142.234 116.975 141.892 115.961 142.282C108.569 145.13 103.673 144.306 96.3135 144.538" stroke="#F3A276" stroke-width="2"/>
<path d="M116.441 144.458C112.105 145.866 99.9855 148.122 96.3135 144.538" stroke="#9E4530" stroke-width="2"/>
<path d="M140.153 109.713C133.985 110.569 127.881 111.849 128.089 119.049C128.142 120.937 128.921 122.316 130.425 123.185" stroke="#601611" stroke-width="2"/>
<path d="M130.426 123.185C130.639 123.777 130.999 124.193 131.506 124.433C131.703 124.524 131.903 124.532 132.106 124.457L137.762 122.377C137.993 122.29 138.248 122.295 138.474 122.393L139.778 122.961" stroke="#802519" stroke-width="2"/>
<path d="M139.778 122.961C135.644 127.703 131.626 127.863 127.722 123.441" stroke="#C68C86" stroke-width="2"/>
<path d="M52.7779 111.474C52.1859 111.65 51.6872 111.959 51.2819 112.402C51.1165 112.583 51.0259 112.799 51.0099 113.05L50.7539 117.762C50.738 117.989 50.7679 118.22 50.8419 118.442C51.0552 119.076 50.8552 119.532 50.2419 119.81C46.3699 121.562 42.1539 123.45 42.2659 128.274C42.3779 133.378 48.4099 135.25 52.4419 135.402C52.7173 135.412 52.9893 135.333 53.2179 135.178L54.2499 134.482C54.5006 134.311 54.6712 134.37 54.7619 134.658L55.0339 135.522" stroke="#F18C5F" stroke-width="2"/>
<path d="M33.3691 129.121L33.8171 128.593C33.9771 128.407 34.0305 128.193 33.9771 127.953C32.5318 121.532 34.8678 115.996 40.9852 111.345" stroke="#F8B17E" stroke-width="2"/>
<path d="M84.7778 114.745C82.5005 112.628 80.1191 111.863 77.6338 112.449" stroke="#3D110E" stroke-width="2"/>
<path d="M77.6336 112.449C75.8789 111.942 74.4336 111.873 73.2976 112.241C66.7909 114.342 63.9563 118.63 64.7936 125.105" stroke="#A28783" stroke-width="2"/>
<path d="M64.7939 125.105C64.8953 125.143 64.9993 125.177 65.106 125.209" stroke="#7F4124" stroke-width="2"/>
<path d="M148.858 123.297C148.404 117.425 145.674 113.548 140.666 111.665C138.914 111.009 131.546 112.585 135.922 115.465C136.135 115.604 136.356 115.623 136.586 115.521L137.698 115.033" stroke="#937F7E" stroke-width="2"/>
<path d="M137.698 115.033C138.092 115.044 138.29 115.188 138.29 115.465C138.311 120.687 135.69 123.26 130.426 123.185" stroke="#4D1812" stroke-width="2"/>
<path d="M113.642 160.921L98.1699 160.713" stroke="#E4845C" stroke-width="2"/>
<path d="M159.361 124.497L158.361 134.105C158.339 134.313 158.371 134.527 158.454 134.721C158.536 134.915 158.665 135.081 158.825 135.198C158.984 135.315 159.167 135.378 159.351 135.378C159.535 135.379 159.711 135.317 159.857 135.201C160.209 134.929 160.463 135.012 160.617 135.449C160.691 135.659 160.835 135.836 161.024 135.951C161.214 136.067 161.438 136.113 161.657 136.081C166.18 135.441 169.529 133.316 171.705 129.705C175.065 124.129 170.913 120.633 166.073 119.001" stroke="#F18C5F" stroke-width="2"/>
<path d="M139.777 122.961C141.377 120.793 142.409 115.969 139.689 114.001C139.578 113.921 139.443 113.88 139.305 113.884C139.168 113.888 139.036 113.938 138.929 114.025L137.697 115.033" stroke="#B38E87" stroke-width="2"/>
<path d="M77.6335 112.449C77.9215 115.201 77.1749 116.772 75.3936 117.161" stroke="#937F7E" stroke-width="2"/>
<path d="M75.3937 117.161C74.727 116.761 74.5057 115.95 74.7297 114.729C74.7777 114.462 74.6657 114.329 74.3937 114.329C73.455 114.334 72.8523 114.758 72.5857 115.601C71.0977 120.345 73.6417 124.305 77.6737 126.449C79.071 127.196 80.4923 127.118 81.9377 126.217" stroke="#B38E87" stroke-width="2"/>
<path d="M70.1299 127.993L64.7939 125.105" stroke="#D5B094" stroke-width="2"/>
<path d="M85.8177 120.873C83.1084 124.1 80.3804 124.82 77.6337 123.033C77.4044 122.884 77.2231 122.689 77.0898 122.449C76.8551 122.038 76.5244 121.724 76.0978 121.505C75.8684 121.388 75.6951 121.214 75.5777 120.985C74.9377 119.7 74.8764 118.425 75.3938 117.161" stroke="#4D1812" stroke-width="2"/>
<path d="M68.7939 205.297C68.9539 205.932 68.9566 206.583 68.802 207.249" stroke="#ADB292" stroke-width="2"/>
<path d="M68.8013 207.25C68.8439 207.708 68.6706 208.26 68.2812 208.905" stroke="#829B69" stroke-width="2"/>
<path d="M68.282 208.905C51.482 202.388 37.202 192.188 25.442 178.305C16.0873 167.265 9.35667 154.785 5.25 140.865" stroke="#478079" stroke-width="2"/>
<path d="M68.2812 208.905L78.5533 211.681C78.6034 211.695 78.656 211.699 78.7075 211.691C78.759 211.682 78.8081 211.663 78.8514 211.634C78.8948 211.605 78.9313 211.568 78.9586 211.523C78.9858 211.479 79.0032 211.429 79.0093 211.377L79.9133 203.953" stroke="#6C7751" stroke-width="2"/>
<path d="M79.9141 203.953C80.4101 204.214 80.7994 204.004 81.082 203.321C81.194 203.06 81.3887 202.908 81.666 202.865C82.1513 202.79 82.738 202.942 83.426 203.321" stroke="#2A3135" stroke-width="2"/>
<path d="M83.4254 203.321L83.2814 212.401C83.2789 212.521 83.3183 212.637 83.3928 212.731C83.4674 212.825 83.5723 212.889 83.6894 212.913C98.9907 216.199 114.263 216.148 129.505 212.761" stroke="#6C7751" stroke-width="2"/>
<path d="M129.506 212.761L135.562 211.329C135.877 211.255 136.005 211.06 135.946 210.745L134.53 202.633C134.47 202.293 134.298 201.982 134.042 201.75C133.785 201.518 133.459 201.378 133.114 201.353C131.183 201.204 130.133 200.257 129.962 198.513" stroke="#416C63" stroke-width="2"/>
<path d="M129.962 198.513C130.271 197.857 130.749 197.476 131.394 197.369" stroke="#586E60" stroke-width="2"/>
<path d="M131.394 197.369C135.41 198.497 136.426 207.265 136.666 210.473C136.687 210.75 136.836 210.86 137.114 210.801C140.65 209.996 144.159 208.777 147.642 207.145" stroke="#6C7751" stroke-width="2"/>
<path d="M147.642 207.145C170.004 198.601 187.02 183.863 198.69 162.929" stroke="#478079" stroke-width="2"/>
<path d="M104.114 149.969C104.007 150.204 104.074 150.374 104.314 150.481C105.954 151.233 111.162 150.385 112.05 148.769C112.226 148.449 112.132 148.297 111.77 148.313C110.082 148.385 104.882 148.281 104.114 149.969Z" stroke="#881E16" stroke-width="2"/>
<path d="M147.642 207.145C145.378 197.801 142.338 191.369 140.346 184.673C140.255 184.359 140.367 184.167 140.682 184.097L141.298 183.961" stroke="#829B69" stroke-width="2"/>
<path d="M114.154 165.113C111.554 165.753 98.41 167.257 97.418 164.249" stroke="#D9784D" stroke-width="2"/>
<path d="M117.649 166.625L116.377 170.417" stroke="#A66436" stroke-width="2"/>
<path d="M116.377 170.418L115.617 167.65C115.584 167.525 115.521 167.409 115.434 167.313C115.348 167.217 115.24 167.142 115.119 167.095C114.998 167.048 114.868 167.031 114.739 167.044C114.61 167.057 114.486 167.1 114.377 167.17C111.193 169.207 108.297 171.583 105.689 174.298C105.513 174.479 105.335 174.482 105.153 174.306L97.4252 166.786C97.2066 166.578 97.0173 166.346 96.8573 166.09L96.1133 164.89" stroke="#E9854C" stroke-width="2"/>
<path d="M116.378 170.417C114.53 175.401 109.762 182.041 104.458 183.345C103.279 183.633 102.37 183.537 101.73 183.057C95.9163 178.695 93.0336 172.831 93.0816 165.465" stroke="#AC6C3B" stroke-width="2"/>
<path d="M121.794 166.489C121.634 172.201 120.09 180.961 115.722 184.569C115.519 184.735 115.303 184.751 115.074 184.617C114.327 184.175 113.922 183.5 113.858 182.593C113.855 182.514 113.824 182.439 113.771 182.381C113.717 182.322 113.645 182.284 113.567 182.274C113.489 182.263 113.409 182.281 113.342 182.323C113.276 182.365 113.226 182.43 113.202 182.505L110.898 188.713C110.845 188.856 110.756 188.983 110.641 189.083C110.526 189.182 110.388 189.252 110.239 189.284C110.09 189.317 109.936 189.312 109.79 189.269C109.643 189.227 109.51 189.148 109.402 189.041C107.434 187.057 104.826 185.153 102.458 188.033C99.498 191.649 96.4579 184.617 96.0179 182.513C95.9956 182.411 95.9461 182.316 95.8745 182.239C95.803 182.163 95.7121 182.107 95.6114 182.077C95.5108 182.048 95.404 182.046 95.3023 182.072C95.2007 182.098 95.108 182.151 95.0339 182.225L93.4259 183.833C93.3124 183.946 93.1759 184.032 93.0259 184.086C92.8759 184.141 92.7161 184.162 92.5576 184.148C92.3991 184.134 92.2458 184.086 92.1084 184.007C91.9709 183.928 91.8527 183.819 91.762 183.689C88.274 178.713 88.1139 173.857 88.4419 166.609" stroke="#886E33" stroke-width="2"/>
<path d="M131.394 197.37L133.058 185.042C133.069 184.943 133.047 184.843 132.994 184.758C132.942 184.673 132.862 184.609 132.768 184.576C132.674 184.542 132.572 184.542 132.478 184.574C132.384 184.606 132.303 184.67 132.25 184.754C132.01 185.148 131.658 185.199 131.194 184.906C130.986 184.772 130.828 184.594 130.721 184.37C129.095 180.951 127.991 177.108 127.41 172.842C127.383 172.644 127.263 172.54 127.05 172.53C126.879 172.524 126.801 172.607 126.817 172.778L129.321 200.866" stroke="#938951" stroke-width="2"/>
<path d="M129.321 200.865L129.505 212.761" stroke="#7B8653" stroke-width="2"/>
<path d="M83.426 203.321C83.5647 197.679 84.1727 192.127 85.25 186.665C85.3727 186.047 85.3434 186.039 85.1621 186.641L79.9141 203.953" stroke="#644B25" stroke-width="2"/>
<path d="M68.8018 207.25L69.3377 208.098C69.5297 208.396 69.6658 208.372 69.7458 208.026C70.0871 206.634 70.3644 204.535 70.5777 201.73C70.9057 197.426 73.0577 188.402 74.0257 184.882C75.6577 178.972 78.5404 173.698 82.6737 169.058" stroke="#D1A96A" stroke-width="2"/>
<path d="M129.961 198.513C129.945 199.287 129.732 200.071 129.321 200.865" stroke="#687E63" stroke-width="2"/>
<path d="M140.897 7.80144C139.271 9.11878 137.543 9.50545 135.713 8.96145C135.479 8.89211 135.247 8.90011 135.017 8.98545L128.617 11.3534C128.34 11.4548 128.201 11.6521 128.201 11.9454C128.201 13.4334 127.553 14.3774 126.257 14.7774C122.081 16.0734 118.209 18.4174 114.129 20.1054C113.313 20.4414 112.519 21.1694 111.745 22.2894C111.596 22.5028 111.647 22.6494 111.897 22.7294C112.943 23.0601 113.855 23.6281 114.633 24.4334C114.665 24.4708 114.681 24.5161 114.681 24.5694C114.676 24.6388 114.665 24.7081 114.649 24.7774C114.607 24.9161 114.657 24.9854 114.801 24.9854C115.993 24.9854 116.513 26.9134 115.761 27.0894L112.593 25.3774C113.473 24.2734 111.033 23.6974 110.289 23.3854C105.111 21.2094 99.4414 20.0494 93.2814 19.9054C74.9534 19.4814 55.7934 24.7134 42.6974 37.8974C42.4147 38.1854 42.1267 38.6388 41.8334 39.2574C41.2254 40.5454 39.8174 41.3934 39.2254 42.2974C35.8334 47.4814 33.6494 53.1481 32.6734 59.2974C31.1854 59.4521 30.3907 58.9668 30.2894 57.8414C30.2771 57.7105 30.2335 57.5846 30.1625 57.4746C30.0915 57.3645 29.995 57.2736 29.8814 57.2094C28.6867 56.5374 27.6334 56.7134 26.7214 57.7374C26.5454 57.9348 26.3321 58.0788 26.0814 58.1694C25.6974 58.3054 15.3934 61.2094 15.2654 62.6254C15.2494 62.8601 15.1294 63.0121 14.9054 63.0814C14.2921 63.2788 13.6948 63.2068 13.1134 62.8654C12.8521 62.7161 12.6521 62.7748 12.5134 63.0414L12.2494 63.5215C12.0467 63.9054 11.8067 63.9294 11.5294 63.5934L11.0254 62.9774C15.8947 51.7721 22.6121 41.7268 31.1774 32.8414C38.6867 25.1561 47.3587 18.8014 57.1934 13.7774C83.5294 0.241444 112.817 -2.39056 140.897 7.80144Z" fill="#AECD9E"/>
<path d="M140.898 7.80176C155.73 13.0071 168.762 21.0711 179.994 31.9938L179.578 32.9458C179.434 33.2924 179.548 33.4658 179.922 33.4658H180.29C180.333 33.4684 180.374 33.4855 180.406 33.5143C180.438 33.5431 180.46 33.582 180.467 33.6245C180.474 33.667 180.467 33.7108 180.447 33.7488C180.426 33.7868 180.393 33.8167 180.354 33.8338C179.372 34.1964 178.692 34.1431 178.314 33.6738C178.138 33.4498 177.911 33.3004 177.634 33.2258C176.439 32.9004 175.383 32.3244 174.466 31.4978C174.263 31.3111 174.05 31.3004 173.826 31.4658C172.658 32.3298 172.444 33.4151 173.186 34.7218C173.218 34.7804 173.212 34.8338 173.17 34.8818C173.111 34.9404 173.063 34.9911 173.026 35.0338C173.021 35.0407 173.018 35.0491 173.018 35.0578C173.018 35.0664 173.021 35.0748 173.026 35.0818C173.959 36.4044 174.948 37.6764 175.994 38.8978C176.159 39.0898 176.18 39.2978 176.058 39.5218C175.924 39.7618 175.852 40.0364 175.842 40.3458C172.247 36.0098 167.868 32.7804 162.706 30.6578C152.999 25.7564 143.367 25.8311 133.81 30.8818C130.54 32.8978 127.791 35.3298 125.562 38.1778C125.364 38.4338 125.191 38.4178 125.042 38.1298C122.727 33.7084 119.634 30.0284 115.762 27.0898C116.514 26.9138 115.994 24.9858 114.802 24.9858C114.658 24.9858 114.607 24.9164 114.65 24.7778C114.666 24.7084 114.676 24.6391 114.682 24.5698C114.682 24.5164 114.666 24.4711 114.634 24.4338C113.855 23.6284 112.943 23.0604 111.898 22.7298C111.647 22.6498 111.596 22.5031 111.746 22.2898C112.519 21.1698 113.314 20.4418 114.13 20.1058C118.21 18.4178 122.082 16.0738 126.258 14.7778C127.554 14.3778 128.202 13.4338 128.202 11.9458C128.202 11.6524 128.34 11.4551 128.618 11.3538L135.018 8.98576C135.247 8.90043 135.479 8.89243 135.714 8.96176C137.543 9.50576 139.271 9.11909 140.898 7.80176Z" fill="#A5CBA5"/>
<path d="M112.593 25.3776L107.521 23.4656C85.0972 16.9456 54.8572 25.6416 40.3852 44.1616C36.6626 49.4309 34.2732 55.2869 33.2172 61.7295C32.1079 62.4069 31.9266 61.5962 32.6732 59.2975C33.6492 53.1482 35.8332 47.4816 39.2252 42.2976C39.8172 41.3936 41.2252 40.5456 41.8332 39.2576C42.1266 38.6389 42.4146 38.1856 42.6973 37.8976C55.7933 24.7136 74.9532 19.4816 93.2812 19.9056C99.4412 20.0496 105.111 21.2096 110.289 23.3856C111.033 23.6976 113.473 24.2736 112.593 25.3776Z" fill="#F7CD97"/>
<path d="M107.522 23.4651C106.258 24.9371 109.41 25.2971 110.33 25.7931C110.175 26.1291 110.204 26.5105 110.418 26.9371C110.471 27.0432 110.489 27.164 110.469 27.2819C110.449 27.3998 110.392 27.5088 110.306 27.5931C109.671 28.2225 108.916 28.4438 108.042 28.2571C107.834 28.2145 107.642 28.2518 107.466 28.3691C106.452 29.0305 105.324 29.3878 104.082 29.4411C103.922 29.4487 103.769 29.5074 103.647 29.6084C103.524 29.7094 103.438 29.8473 103.402 30.0011L103.194 30.8651C103.163 30.993 103.095 31.1089 103 31.1985C102.905 31.2881 102.786 31.3474 102.658 31.3691C90.8335 33.2678 79.6016 36.9211 68.9616 42.3291C66.1696 43.7451 63.3295 45.8971 60.4655 47.6331C60.383 47.6861 60.2849 47.7094 60.1873 47.6992C60.0898 47.689 59.9986 47.646 59.9288 47.5771C59.859 47.5082 59.8146 47.4176 59.8032 47.3202C59.7917 47.2228 59.8136 47.1244 59.8655 47.0411L61.1055 44.8891C61.1486 44.82 61.1663 44.738 61.1556 44.6573C61.145 44.5765 61.1067 44.5019 61.0472 44.4463C60.9878 44.3906 60.9109 44.3572 60.8296 44.3519C60.7483 44.3466 60.6677 44.3697 60.6015 44.4171C56.4495 47.2491 54.1775 50.0091 51.9375 54.4331C50.9935 56.2891 49.5856 57.7638 47.7136 58.8571C47.6615 58.8879 47.6034 58.9072 47.5431 58.9137C47.4828 58.9202 47.4216 58.9138 47.3636 58.895C47.3055 58.8761 47.2518 58.8452 47.206 58.8042C47.1602 58.7633 47.1232 58.7131 47.0975 58.6571L45.8175 55.7531C45.7108 55.5025 45.7189 55.2571 45.8415 55.0171C48.1242 50.6918 51.1802 47.0171 55.0095 43.9931C55.1166 43.9086 55.1898 43.7882 55.2161 43.6534C55.2425 43.5186 55.2203 43.3782 55.1535 43.2571C54.9935 42.9745 54.7508 42.9531 54.4255 43.1931C48.5695 47.5611 44.5109 53.2358 42.2495 60.2171C42.1749 60.4518 42.0229 60.6225 41.7935 60.7291L38.6975 62.1051C38.5429 62.1728 38.3685 62.179 38.2105 62.1223C38.0526 62.0657 37.9233 61.9507 37.8495 61.8011C37.3162 60.7238 36.4709 60.0278 35.3136 59.7131C34.9989 59.6278 34.8762 59.4251 34.9455 59.1051C35.9429 54.4811 37.7215 50.1931 40.2815 46.2411C40.5855 45.7771 40.6202 45.0838 40.3855 44.1611C54.8575 25.6411 85.0975 16.9451 107.522 23.4651ZM95.3135 24.8651C95.4293 24.7731 95.5131 24.6474 95.5534 24.5054C95.5937 24.3635 95.5884 24.2122 95.5383 24.0725C95.4882 23.9328 95.3958 23.8117 95.2739 23.7258C95.1519 23.6399 95.0064 23.5936 94.8575 23.5931C84.6415 23.6411 73.2895 25.6651 66.2975 33.3931C66.2769 33.419 66.2647 33.4507 66.2628 33.4838C66.2609 33.5168 66.2693 33.5497 66.2868 33.5778C66.3044 33.6059 66.3302 33.6278 66.3608 33.6406C66.3914 33.6534 66.4252 33.6564 66.4575 33.6491C75.2149 31.2438 83.9375 28.7558 92.6255 26.1851C93.7348 25.8598 94.6309 25.4198 95.3135 24.8651Z" fill="#4C2524"/>
<path d="M107.522 23.4653L112.594 25.3773L115.762 27.0893C119.634 30.028 122.727 33.708 125.042 38.1293C125.191 38.4173 125.365 38.4333 125.562 38.1773C127.791 35.3293 130.541 32.8973 133.81 30.8813C134.061 33.0627 132.997 34.9427 130.618 36.5213C130.38 36.6817 130.207 36.9198 130.13 37.1933C129.863 38.1853 130.106 38.844 130.858 39.1693C130.964 39.2144 131.059 39.2819 131.137 39.3673C131.216 39.4528 131.276 39.5543 131.314 39.6653L131.946 41.5453C131.982 41.6567 132.06 41.7499 132.164 41.8063C132.268 41.8627 132.39 41.8781 132.506 41.8493C136.818 40.8573 140.962 40.8333 145.482 40.4733C149.626 40.1533 154.034 42.2013 157.906 44.2973C158.362 44.5453 159.202 44.4253 159.642 44.1373C159.829 44.02 160.013 44.02 160.194 44.1373C161.554 45.0387 162.69 44.8813 163.602 43.6653C163.794 43.4093 163.89 43.1213 163.89 42.8013V41.9453C163.89 41.6627 164.031 41.5373 164.314 41.5693C164.81 41.6333 165.29 41.764 165.754 41.9613C169.226 43.4413 169.29 38.4573 171.13 36.7213C176.026 41.2973 179.351 46.4787 181.106 52.2653C182.93 58.2707 183.533 64.74 182.914 71.6733C182.893 71.8547 182.81 72.0013 182.666 72.1133L182.218 72.4413C181.946 72.6387 181.823 72.9053 181.85 73.2413C182.133 76.98 181.501 80.548 179.954 83.9453C179.799 84.2813 179.679 84.268 179.594 83.9053L179.418 83.1773C179.381 83.012 179.279 82.9187 179.114 82.8973C178.133 82.7693 177.295 82.324 176.602 81.5613C176.521 81.4733 176.46 81.3689 176.421 81.2546C176.383 81.1403 176.368 81.0187 176.378 80.8973C176.565 78.4813 176.49 76.068 176.154 73.6573C176.095 73.2467 175.967 73.2227 175.77 73.5853C174.258 76.3373 175.138 79.0813 174.154 81.7053C174.063 81.9613 173.885 82.0573 173.618 81.9933C172.957 81.828 172.309 81.94 171.674 82.3293C171.461 82.4627 171.234 82.484 170.994 82.3933L168.194 81.3053C167.815 81.1613 167.581 81.2867 167.49 81.6813C167.469 81.7933 167.402 81.884 167.29 81.9533C166.965 82.1667 166.81 82.0787 166.826 81.6893L166.874 80.0413C166.879 79.8387 166.783 79.7133 166.586 79.6653C166.01 79.5373 165.762 79.2707 165.842 78.8653C165.889 78.6149 165.861 78.3561 165.762 78.1213C164.727 75.6307 163.527 73.228 162.162 70.9133C161.21 69.2893 157.802 65.3453 156.242 64.4173C147.85 59.4333 139.418 57.0733 130.69 54.0253C127.794 53.0093 123.386 50.8333 123.034 47.3533C123.013 47.156 122.901 47.0627 122.698 47.0733C120.767 47.1907 119.535 47.5587 119.002 48.1773C106.674 62.5053 87.1139 61.4653 71.1699 68.8573C64.7139 71.8493 57.122 71.3693 53.2979 78.8093C52.0979 81.1453 51.218 87.1853 51.41 89.8253C51.746 94.524 51.4713 99.204 50.5859 103.865C50.5379 104.127 50.3886 104.303 50.1379 104.393C48.0819 105.161 48.458 107.481 45.562 106.801C45.306 106.743 45.0526 106.756 44.802 106.841C43.9113 107.151 43.1566 106.911 42.5379 106.121C42.3619 105.892 42.2846 105.633 42.306 105.345C42.37 104.492 42.2099 103.551 41.8259 102.521C39.2713 95.7373 36.8579 88.0733 34.5859 79.5293C36.3726 80.132 37.0073 78.8413 36.4899 75.6573C36.4366 75.316 36.578 75.1133 36.914 75.0493L39.6739 74.5053C39.7296 74.4936 39.781 74.4682 39.823 74.4317C39.8651 74.3952 39.8965 74.3489 39.914 74.2973L40.754 72.0573C40.8553 71.78 41.0393 71.7 41.306 71.8173C44.458 73.2093 45.6179 70.7613 47.3219 68.3373C48.1593 67.1373 48.6313 65.772 48.7379 64.2413C48.7539 64.0084 48.8107 63.7783 48.906 63.5613L50.114 60.8733C50.2206 60.6387 50.3753 60.4467 50.5779 60.2973C52.1619 59.1613 54.882 54.3293 56.61 54.9293C56.7454 54.9767 56.8666 55.0576 56.9623 55.1646C57.0579 55.2715 57.1249 55.401 57.1568 55.5409C57.1888 55.6808 57.1848 55.8265 57.1451 55.9644C57.1054 56.1023 57.0314 56.2278 56.9299 56.3293C55.0419 58.2173 53.57 60.4653 53.306 63.0493C53.186 64.2733 51.746 64.4413 51.81 65.9693C51.8116 66.0308 51.8298 66.0904 51.8629 66.1421C51.8961 66.1938 51.9428 66.2357 51.9983 66.2635C52.0538 66.2912 52.116 66.3038 52.1785 66.2999C52.2411 66.296 52.3016 66.2758 52.354 66.2413C65.506 57.3133 79.6339 52.5693 96.2419 46.0013C99.7939 44.5987 103.423 43.4253 107.13 42.4813C109.33 41.9213 111.61 40.8093 114.082 40.3773C114.365 40.324 114.573 40.172 114.706 39.9213C115.314 38.7853 116.245 38.0813 117.498 37.8093C117.667 37.7741 117.819 37.6853 117.933 37.5563C118.048 37.4272 118.117 37.2647 118.131 37.093C118.146 36.9213 118.104 36.7496 118.013 36.6033C117.922 36.4571 117.786 36.3442 117.626 36.2813C114.053 34.884 110.319 34.276 106.426 34.4573C106.246 34.4683 106.069 34.417 105.924 34.3122C105.778 34.2073 105.673 34.0551 105.626 33.881C105.58 33.707 105.594 33.5215 105.666 33.3556C105.739 33.1897 105.866 33.0534 106.026 32.9693C108.85 31.4893 113.858 34.0893 116.45 33.0493C116.772 32.9203 117.057 32.7083 117.275 32.4369C117.493 32.1656 117.634 31.8455 117.683 31.5122C117.732 31.179 117.686 30.8457 117.552 30.5493C117.418 30.2529 117.2 30.0051 116.922 29.8333L110.33 25.7933C109.41 25.2973 106.258 24.9373 107.522 23.4653Z" fill="#2E1319"/>
<path d="M95.3137 24.8653C94.631 25.4199 93.735 25.8599 92.6257 26.1853C83.9377 28.7559 75.215 31.2439 66.4577 33.6493C66.4254 33.6565 66.3915 33.6535 66.361 33.6408C66.3304 33.628 66.3045 33.606 66.287 33.5779C66.2694 33.5498 66.261 33.517 66.263 33.4839C66.2649 33.4508 66.277 33.4191 66.2977 33.3933C73.2897 25.6653 84.6417 23.6413 94.8577 23.5933C95.0066 23.5937 95.152 23.6401 95.274 23.7259C95.396 23.8118 95.4884 23.933 95.5385 24.0726C95.5885 24.2123 95.5938 24.3636 95.5535 24.5056C95.5133 24.6476 95.4295 24.7733 95.3137 24.8653Z" fill="#F7CD97"/>
<path d="M110.33 25.7935L116.922 29.8335C117.2 30.0052 117.418 30.253 117.552 30.5494C117.686 30.8458 117.731 31.1791 117.683 31.5124C117.634 31.8456 117.493 32.1657 117.275 32.437C117.057 32.7084 116.772 32.9204 116.45 33.0495C113.858 34.0895 108.85 31.4895 106.026 32.9695C105.866 33.0535 105.739 33.1898 105.666 33.3557C105.594 33.5216 105.579 33.7071 105.626 33.8812C105.673 34.0552 105.778 34.2074 105.923 34.3123C106.069 34.4171 106.246 34.4684 106.426 34.4575C110.319 34.2761 114.052 34.8841 117.626 36.2815C117.786 36.3443 117.922 36.4572 118.013 36.6035C118.104 36.7497 118.146 36.9215 118.131 37.0932C118.117 37.2649 118.048 37.4273 117.933 37.5564C117.819 37.6854 117.666 37.7742 117.498 37.8095C116.245 38.0815 115.314 38.7855 114.706 39.9215C114.573 40.1721 114.364 40.3241 114.082 40.3775C111.61 40.8095 109.33 41.9214 107.13 42.4815C103.423 43.4254 99.7938 44.5988 96.2418 46.0015C79.6338 52.5695 65.5059 57.3135 52.3539 66.2415C52.3015 66.2759 52.241 66.2961 52.1784 66.3C52.1159 66.3039 52.0537 66.2913 51.9982 66.2636C51.9427 66.2359 51.896 66.194 51.8628 66.1422C51.8297 66.0905 51.8115 66.0309 51.8099 65.9695C51.7459 64.4415 53.1859 64.2734 53.3059 63.0494C53.5699 60.4655 55.0418 58.2175 56.9298 56.3295C57.0313 56.228 57.1053 56.1024 57.145 55.9645C57.1847 55.8266 57.1887 55.6809 57.1567 55.541C57.1248 55.4011 57.0578 55.2717 56.9622 55.1647C56.8665 55.0577 56.7453 54.9768 56.6099 54.9295C54.8819 54.3295 52.1618 59.1614 50.5778 60.2974C50.3752 60.4468 50.2205 60.6388 50.1139 60.8734L48.9059 63.5614C48.8106 63.7784 48.7538 64.0085 48.7378 64.2415C48.6312 65.7721 48.1592 67.1374 47.3218 68.3374C45.6178 70.7614 44.4579 73.2095 41.3059 71.8175C41.0392 71.7001 40.8552 71.7801 40.7539 72.0575L39.9139 74.2974C39.8964 74.349 39.865 74.3954 39.8229 74.4318C39.7809 74.4683 39.7295 74.4937 39.6738 74.5055L36.9139 75.0494C36.5779 75.1134 36.4365 75.3161 36.4898 75.6575C37.0072 78.8415 36.3725 80.1321 34.5858 79.5295C34.0045 74.1588 33.8392 68.9881 34.0898 64.0175C34.1112 63.6761 33.9618 63.5668 33.6418 63.6894C33.3538 63.7961 33.0312 64.2121 32.6738 64.9375L33.2178 61.7295C34.2738 55.2868 36.6632 49.4308 40.3858 44.1615C40.6205 45.0841 40.5858 45.7775 40.2818 46.2415C37.7218 50.1935 35.9432 54.4815 34.9458 59.1055C34.8765 59.4255 34.9992 59.6281 35.3139 59.7135C36.4712 60.0281 37.3165 60.7241 37.8499 61.8014C37.9236 61.951 38.0529 62.0661 38.2108 62.1227C38.3688 62.1793 38.5432 62.1731 38.6979 62.1055L41.7938 60.7295C42.0232 60.6228 42.1752 60.4521 42.2499 60.2175C44.5112 53.2361 48.5698 47.5615 54.4258 43.1935C54.7512 42.9535 54.9939 42.9748 55.1539 43.2575C55.2206 43.3785 55.2428 43.5189 55.2165 43.6537C55.1901 43.7885 55.1169 43.9089 55.0099 43.9935C51.1805 47.0175 48.1245 50.6921 45.8418 55.0175C45.7192 55.2575 45.7112 55.5028 45.8178 55.7535L47.0979 58.6575C47.1235 58.7135 47.1605 58.7636 47.2063 58.8046C47.2521 58.8455 47.3058 58.8764 47.3639 58.8953C47.4219 58.9142 47.4831 58.9205 47.5434 58.914C47.6037 58.9075 47.6618 58.8882 47.7139 58.8575C49.5859 57.7641 50.9938 56.2895 51.9378 54.4335C54.1778 50.0095 56.4499 47.2495 60.6019 44.4175C60.668 44.37 60.7487 44.347 60.8299 44.3523C60.9112 44.3576 60.9881 44.3909 61.0476 44.4466C61.107 44.5023 61.1453 44.5768 61.156 44.6576C61.1666 44.7383 61.1489 44.8203 61.1059 44.8895L59.8658 47.0415C59.814 47.1247 59.792 47.2231 59.8035 47.3205C59.815 47.4179 59.8593 47.5085 59.9291 47.5774C59.9989 47.6463 60.0901 47.6894 60.1876 47.6996C60.2852 47.7097 60.3833 47.6864 60.4658 47.6335C63.3298 45.8975 66.1699 43.7455 68.9619 42.3295C79.6019 36.9215 90.8339 33.2681 102.658 31.3695C102.786 31.3477 102.905 31.2884 103 31.1988C103.096 31.1092 103.163 30.9933 103.194 30.8655L103.402 30.0015C103.438 29.8476 103.524 29.7098 103.647 29.6087C103.77 29.5077 103.922 29.449 104.082 29.4415C105.325 29.3881 106.452 29.0308 107.466 28.3695C107.642 28.2521 107.834 28.2148 108.042 28.2575C108.917 28.4441 109.671 28.2228 110.306 27.5935C110.392 27.5091 110.449 27.4001 110.469 27.2822C110.489 27.1643 110.471 27.0436 110.418 26.9375C110.204 26.5108 110.175 26.1295 110.33 25.7935Z" fill="#3E1D1F"/>
<path d="M162.706 30.6575L171.13 36.7215C169.29 38.4575 169.226 43.4415 165.754 41.9615C165.29 41.7641 164.81 41.6335 164.314 41.5695C164.031 41.5375 163.89 41.6628 163.89 41.9455V42.8015C163.89 43.1215 163.794 43.4095 163.602 43.6655C162.69 44.8815 161.554 45.0388 160.194 44.1375C160.013 44.0201 159.829 44.0201 159.642 44.1375C159.202 44.4255 158.362 44.5455 157.906 44.2975C154.034 42.2015 149.626 40.1535 145.482 40.4735C140.962 40.8335 136.818 40.8575 132.506 41.8495C132.39 41.8782 132.268 41.8628 132.165 41.8065C132.061 41.7501 131.983 41.6568 131.946 41.5455L131.314 39.6655C131.276 39.5544 131.216 39.4529 131.137 39.3675C131.059 39.282 130.964 39.2146 130.858 39.1695C130.106 38.8441 129.863 38.1855 130.13 37.1935C130.207 36.9199 130.38 36.6818 130.618 36.5215C132.997 34.9428 134.061 33.0628 133.81 30.8815C143.367 25.8308 152.999 25.7561 162.706 30.6575Z" fill="#4C2524"/>
<path d="M162.706 30.6572C167.869 32.7799 172.247 36.0092 175.842 40.3452C177.778 42.5639 179.407 45.0839 180.73 47.9052C189.154 67.7052 182.522 88.7372 173.09 106.601C172.957 106.852 173.026 107.025 173.298 107.121C179.047 109.18 183.49 112.913 186.626 118.321C194.714 131.305 196.442 147.497 189.77 161.569C179.666 179.633 161.402 186.361 141.298 183.961L139.994 183.841C139.701 183.815 139.495 183.665 139.378 183.393C135.874 175.335 130.013 169.7 121.794 166.489L119.394 166.073C119.106 166.025 118.882 166.121 118.722 166.361C118.364 166.9 118.007 166.988 117.65 166.625C118.57 165.097 115.482 165.249 114.154 165.113C113.178 163.935 113.007 162.537 113.642 160.921C131.274 159.545 150.354 153.241 158.826 136.097C158.997 135.745 159.253 135.665 159.594 135.857L161.41 136.857C161.666 137.001 161.935 137.105 162.218 137.169C170.308 138.988 176.506 136.916 180.81 130.953C184.97 125.185 184.89 118.969 180.05 113.705C177.842 111.313 173.154 108.649 169.962 110.257C167.394 111.553 166.194 116.449 166.074 119.001C166.074 121.028 166.327 122.988 166.834 124.881C167.261 126.455 166.74 126.983 165.274 126.465C165.054 126.387 164.861 126.251 164.714 126.073C162.927 123.892 161.573 121.127 160.65 117.777L160.346 109.473C160.922 96.7799 160.914 87.6466 160.322 82.0732C159.538 74.7372 154.618 71.3372 147.722 68.7532C137.954 65.0892 129.538 61.5532 122.09 53.9532C121.887 53.7506 121.695 53.7559 121.514 53.9692C112.658 64.3452 96.5219 68.0892 83.0579 70.2252C72.9032 71.9906 66.3778 73.3292 63.4818 74.2412C55.6338 76.7212 53.2738 83.2972 53.2738 90.8652C53.2738 97.8626 53.2845 104.844 53.3059 111.809C52.9059 111.905 52.7298 111.793 52.7778 111.473C48.5005 109.255 44.5698 109.212 40.9858 111.345C33.5218 114.217 30.4978 121.497 33.3698 129.121C38.5485 137.02 45.7698 139.153 55.0338 135.521C54.8418 135.217 55.0179 135.068 55.5619 135.073C60.6659 149.673 75.3939 156.881 89.8979 159.449L98.1698 160.713C98.1912 162.004 97.9405 163.183 97.4178 164.249C97.0605 164.66 96.6259 164.873 96.1139 164.889L93.0818 165.465L88.4418 166.609L82.6738 169.057C72.3538 173.801 69.3538 195.289 68.7938 205.297C68.4018 203.513 68.3938 201.673 67.4818 200.057C58.4338 184.041 45.0738 171.033 32.2658 159.089C27.1032 154.268 22.9885 148.86 19.9218 142.865C17.6712 137.953 16.0845 132.812 15.1619 127.441L15.0898 126.097C15.2125 125.948 15.3645 125.871 15.5458 125.865C15.6583 125.86 15.769 125.895 15.8594 125.964C15.9498 126.032 16.0143 126.13 16.0418 126.241C17.3378 131.847 19.2952 137.196 21.9139 142.289C22.8819 144.177 24.4578 144.657 26.3858 144.137C26.6898 144.057 26.8365 143.86 26.8258 143.545C26.7538 141.033 26.2178 135.441 29.0418 134.817C29.0978 134.806 29.1508 134.784 29.198 134.751C29.2452 134.719 29.2856 134.678 29.3168 134.629C29.3481 134.581 29.3696 134.527 29.38 134.47C29.3905 134.413 29.3897 134.354 29.3778 134.297C28.6658 130.865 27.2258 123.049 30.2178 121.169C30.4205 121.047 30.5592 120.873 30.6338 120.649C32.0525 116.596 34.3165 113.105 37.4258 110.177C37.6445 109.975 37.7298 109.727 37.6818 109.433C37.4045 107.737 37.8898 106.284 39.1378 105.073C39.2274 104.986 39.2963 104.88 39.3392 104.764C39.3822 104.648 39.3981 104.524 39.3858 104.401C39.0392 100.401 38.1619 96.5319 36.7539 92.7932C36.6739 92.5852 36.5245 92.4652 36.3059 92.4332L33.8178 92.0652L35.6178 91.3772C35.7447 91.3265 35.8549 91.2411 35.9355 91.1307C36.0161 91.0204 36.0641 90.8896 36.0738 90.7532C36.0952 90.3106 35.9245 89.8812 35.5619 89.4652C33.5459 81.1132 31.8658 74.5132 32.6738 64.9372C33.0312 64.2119 33.3538 63.7959 33.6418 63.6892C33.9618 63.5666 34.1112 63.6759 34.0898 64.0172C33.8392 68.9879 34.0045 74.1586 34.5858 79.5292C36.8578 88.0732 39.2712 95.7372 41.8258 102.521C42.2098 103.551 42.3699 104.492 42.3059 105.345C42.2845 105.633 42.3618 105.892 42.5378 106.121C43.1565 106.911 43.9112 107.151 44.8019 106.841C45.0525 106.756 45.3059 106.743 45.5619 106.801C48.4579 107.481 48.0818 105.161 50.1378 104.393C50.3885 104.303 50.5378 104.127 50.5858 103.865C51.4712 99.2039 51.7459 94.5239 51.4099 89.8252C51.2179 87.1852 52.0979 81.1452 53.2979 78.8092C57.1219 71.3692 64.7138 71.8492 71.1698 68.8572C87.1138 61.4652 106.674 62.5052 119.002 48.1772C119.535 47.5586 120.767 47.1906 122.698 47.0732C122.901 47.0626 123.013 47.1559 123.034 47.3532C123.386 50.8332 127.794 53.0092 130.69 54.0252C139.418 57.0732 147.85 59.4332 156.242 64.4172C157.802 65.3452 161.21 69.2892 162.162 70.9132C163.527 73.2279 164.727 75.6306 165.762 78.1212C165.861 78.356 165.889 78.6148 165.842 78.8652C165.762 79.2706 166.01 79.5372 166.586 79.6652C166.783 79.7132 166.879 79.8386 166.874 80.0412L166.826 81.6892C166.81 82.0786 166.965 82.1666 167.29 81.9532C167.402 81.8839 167.469 81.7932 167.49 81.6812C167.581 81.2866 167.815 81.1612 168.194 81.3052L170.994 82.3932C171.234 82.4839 171.46 82.4626 171.674 82.3292C172.309 81.9399 172.956 81.8279 173.618 81.9932C173.884 82.0572 174.063 81.9612 174.154 81.7052C175.138 79.0812 174.258 76.3372 175.77 73.5852C175.967 73.2226 176.095 73.2466 176.154 73.6572C176.49 76.0679 176.564 78.4812 176.378 80.8972C176.368 81.0186 176.383 81.1402 176.421 81.2545C176.46 81.3688 176.521 81.4732 176.602 81.5612C177.295 82.3239 178.133 82.7692 179.114 82.8972C179.279 82.9186 179.38 83.0119 179.418 83.1772L179.594 83.9052C179.679 84.2679 179.799 84.2812 179.954 83.9452C181.501 80.5479 182.133 76.9799 181.85 73.2412C181.823 72.9052 181.946 72.6386 182.218 72.4412L182.666 72.1132C182.81 72.0012 182.893 71.8546 182.914 71.6732C183.533 64.7399 182.93 58.2706 181.106 52.2652C179.351 46.4786 176.026 41.2972 171.13 36.7212L162.706 30.6572Z" fill="#1A060F"/>
<path d="M179.994 31.9931C204.794 56.5851 214.522 89.0411 211.122 123.481C210.38 130.921 208.842 138.174 206.506 145.241C204.415 151.337 201.81 157.233 198.69 162.929C198.05 162.95 197.532 162.716 197.138 162.225C196.978 162.028 196.78 161.972 196.546 162.057L195.978 162.273C195.919 162.294 195.857 162.3 195.795 162.291C195.734 162.283 195.676 162.259 195.626 162.223C195.575 162.187 195.534 162.139 195.507 162.084C195.479 162.028 195.465 161.967 195.466 161.905C195.498 160.71 195.212 159.638 194.61 158.689C194.45 158.449 194.252 158.412 194.018 158.577L191.578 160.321C191.418 160.433 191.287 160.577 191.186 160.753C190.892 161.265 190.42 161.537 189.77 161.569C196.442 147.497 194.714 131.305 186.626 118.321C186.999 118.012 187.463 117.91 188.018 118.017C188.3 118.07 188.511 117.974 188.65 117.729C202.09 93.9371 201.41 67.6011 184.618 45.5371C184.534 45.4285 184.419 45.3488 184.288 45.3091C184.156 45.2695 184.016 45.2719 183.886 45.316C183.757 45.3601 183.644 45.4437 183.564 45.5551C183.485 45.6665 183.442 45.8001 183.442 45.9371C183.442 46.4811 183.178 46.7291 182.65 46.6811C182.383 46.6598 182.18 46.7638 182.042 46.9931C181.695 47.5478 181.258 47.8518 180.73 47.9051C179.407 45.0838 177.778 42.5638 175.842 40.3451C175.852 40.0358 175.924 39.7611 176.058 39.5211C176.18 39.2971 176.159 39.0891 175.994 38.8971C174.948 37.6758 173.959 36.4038 173.026 35.0811C173.02 35.0742 173.018 35.0658 173.018 35.0571C173.018 35.0485 173.02 35.04 173.026 35.0331C173.063 34.9904 173.111 34.9398 173.17 34.8811C173.212 34.8331 173.218 34.7798 173.186 34.7211C172.444 33.4145 172.658 32.3291 173.826 31.4651C174.05 31.2998 174.263 31.3105 174.466 31.4971C175.383 32.3238 176.439 32.8998 177.634 33.2251C177.911 33.2998 178.138 33.4491 178.314 33.6731C178.692 34.1425 179.372 34.1958 180.354 33.8331C180.393 33.8161 180.426 33.7861 180.447 33.7481C180.467 33.7102 180.474 33.6664 180.467 33.6239C180.46 33.5813 180.438 33.5425 180.406 33.5137C180.374 33.4849 180.333 33.4678 180.29 33.4651H179.922C179.548 33.4651 179.434 33.2918 179.578 32.9451L179.994 31.9931Z" fill="#7EBA98"/>
<path d="M186.625 118.321C183.489 112.913 179.047 109.18 173.297 107.121C173.025 107.025 172.956 106.852 173.089 106.601C182.521 88.7373 189.153 67.7053 180.729 47.9053C181.257 47.852 181.695 47.548 182.041 46.9933C182.18 46.764 182.383 46.66 182.649 46.6813C183.177 46.7293 183.441 46.4813 183.441 45.9373C183.441 45.8003 183.484 45.6667 183.564 45.5553C183.644 45.4439 183.756 45.3603 183.886 45.3162C184.016 45.2721 184.156 45.2697 184.287 45.3093C184.418 45.349 184.534 45.4287 184.617 45.5373C201.409 67.6013 202.089 93.9373 188.649 117.729C188.511 117.975 188.3 118.071 188.017 118.017C187.463 117.911 186.999 118.012 186.625 118.321Z" fill="#5DA491"/>
<path d="M160.346 109.474L160.298 107.418C160.292 107.204 160.188 107.084 159.986 107.058L159.73 107.026C159.468 106.988 159.332 106.839 159.322 106.578C159.274 105.498 158.698 104.674 158.706 103.658C158.727 97.8124 158.644 91.9618 158.458 86.1058C158.226 78.8098 156.858 73.6818 149.818 71.2978C144.98 69.6604 140.799 68.1164 137.274 66.6658C131.858 64.4338 126.738 60.8178 121.594 57.5858C121.373 57.4473 121.106 57.4013 120.85 57.4578C119.788 57.6924 119.111 58.3058 118.818 59.2978C118.738 59.5751 118.578 59.7964 118.338 59.9618C108.418 66.9138 95.6176 70.4338 83.3696 71.9858C83.1669 72.0124 83.0656 71.9218 83.0656 71.7138L83.0576 70.2258C96.5216 68.0898 112.658 64.3458 121.514 53.9698C121.695 53.7564 121.887 53.7511 122.09 53.9538C129.538 61.5538 137.954 65.0898 147.722 68.7538C154.618 71.3378 159.538 74.7378 160.322 82.0738C160.914 87.6471 160.922 96.7804 160.346 109.474Z" fill="#F89564"/>
<path d="M32.6737 59.2975C31.9271 61.5961 32.1084 62.4068 33.2177 61.7295L32.6737 64.9375C31.8657 74.5135 33.5458 81.1135 35.5618 89.4655C28.1058 92.0255 22.5324 96.7215 18.8417 103.553C14.1697 112.209 13.6497 117.953 14.2417 128.057C14.2471 128.164 14.3031 128.223 14.4098 128.233L14.6098 128.265C14.8658 128.297 15.0177 128.185 15.0657 127.929L15.1618 127.441C16.0844 132.812 17.6711 137.953 19.9217 142.865C19.8044 142.988 19.6551 143.063 19.4737 143.089C19.1964 143.121 18.9911 143.012 18.8578 142.761C16.7511 138.729 15.3217 134.465 14.5697 129.969C14.5484 129.841 14.4738 129.777 14.3458 129.777C14.0258 129.783 13.7164 129.655 13.4177 129.393C9.76972 126.193 9.40173 131.681 6.42573 131.705C6.16973 131.705 5.96973 131.815 5.82573 132.033L4.77773 133.593C4.61773 133.833 4.4524 133.836 4.28174 133.601C4.00974 133.233 3.68175 132.988 3.29775 132.865C-1.01158 109.297 1.31908 86.3748 10.2897 64.0975C10.5457 64.0121 10.7911 63.6388 11.0257 62.9775L11.5297 63.5935C11.8071 63.9295 12.0471 63.9055 12.2498 63.5215L12.5138 63.0415C12.6524 62.7748 12.8524 62.7161 13.1138 62.8655C13.6951 63.2068 14.2924 63.2788 14.9058 63.0815C15.1298 63.0121 15.2497 62.8601 15.2657 62.6255C15.3937 61.2095 25.6977 58.3055 26.0817 58.1695C26.3324 58.0788 26.5457 57.9348 26.7217 57.7375C27.6337 56.7135 28.6871 56.5375 29.8817 57.2095C29.9953 57.2736 30.0918 57.3646 30.1628 57.4746C30.2339 57.5847 30.2774 57.7105 30.2897 57.8415C30.3911 58.9668 31.1857 59.4521 32.6737 59.2975ZM15.4596 85.7721C15.4401 85.6369 15.3854 85.5082 15.2986 85.3932C15.2117 85.2782 15.0945 85.1793 14.9535 85.102C14.8125 85.0248 14.6506 84.9707 14.477 84.9429C14.3033 84.9151 14.1213 84.9142 13.9414 84.9401C13.5781 84.9925 13.2453 85.1511 13.0163 85.3812C12.7872 85.6112 12.6806 85.8938 12.7199 86.1668C12.7394 86.302 12.7941 86.4308 12.8809 86.5457C12.9677 86.6607 13.085 86.7596 13.226 86.8369C13.3669 86.9141 13.5289 86.9682 13.7025 86.996C13.8762 87.0238 14.0582 87.0247 14.2381 86.9988C14.6014 86.9465 14.9342 86.7878 15.1632 86.5578C15.3923 86.3277 15.4989 86.0451 15.4596 85.7721Z" fill="#91C299"/>
<path d="M160.345 109.474L160.649 117.778C159.609 119.644 159.18 121.884 159.361 124.498C159.009 124.818 158.681 124.996 158.377 125.034L158.457 124.626C158.521 124.332 158.404 124.159 158.105 124.106C156.367 123.78 154.649 123.415 152.953 123.01C152.802 122.974 152.66 122.906 152.538 122.81C152.415 122.714 152.316 122.592 152.246 122.453C152.175 122.315 152.136 122.162 152.132 122.007C152.127 121.851 152.156 121.697 152.217 121.554C152.377 121.18 152.287 121.023 151.945 121.082C151.705 121.13 151.569 121.274 151.537 121.514C151.324 123.055 150.463 124.055 148.953 124.514C148.735 124.076 148.703 123.671 148.857 123.298C149.817 122.62 150.46 121.772 150.785 120.754C150.871 120.492 150.871 120.234 150.785 119.978C149.143 114.778 145.599 111.356 140.153 109.714C131.145 106.538 123.457 114.57 127.721 123.442L126.809 123.858C126.681 123.543 126.548 123.295 126.409 123.114C126.365 123.049 126.296 123.005 126.219 122.99C126.142 122.976 126.062 122.993 125.997 123.038C125.933 123.082 125.888 123.151 125.874 123.228C125.86 123.305 125.877 123.385 125.921 123.45C127.164 125.418 128.783 126.986 130.777 128.154C131.241 128.426 131.204 128.583 130.665 128.626C129.057 128.754 128.585 126.554 127.081 126.266C126.831 126.218 126.601 126.119 126.393 125.97L123.961 124.202C123.759 124.052 123.532 124.012 123.281 124.082C122.193 124.396 121.423 124.039 120.969 123.01C120.919 122.891 120.829 122.793 120.714 122.734C120.6 122.675 120.468 122.657 120.341 122.684C120.214 122.712 120.1 122.782 120.018 122.883C119.936 122.985 119.89 123.111 119.889 123.242V124.466C119.889 124.796 119.772 124.847 119.537 124.618L119.201 124.274C119.01 124.087 118.761 123.974 118.497 123.954C116.103 123.788 113.737 123.54 111.401 123.21C111.327 123.199 111.258 123.164 111.205 123.111C111.152 123.059 111.117 122.99 111.105 122.916C111.094 122.842 111.106 122.766 111.141 122.699C111.175 122.633 111.23 122.579 111.297 122.546L111.657 122.378C111.865 122.282 111.921 122.13 111.825 121.922C110.745 119.634 108.905 120.802 107.041 120.466C106.919 120.442 106.792 120.453 106.675 120.496C106.557 120.54 106.455 120.615 106.377 120.714C105.737 121.508 105.039 121.706 104.281 121.306C102.484 120.351 100.836 120.218 99.3374 120.906C99.2259 120.956 99.1035 120.977 98.9827 120.966C98.8618 120.955 98.7469 120.912 98.6495 120.842C96.7188 119.439 94.8708 119.495 93.1055 121.01C92.9348 121.154 92.7375 121.226 92.5135 121.226C91.5055 121.234 88.9134 122.234 88.3294 121.226C88.2174 121.028 88.1294 121.039 88.0654 121.258C87.2068 124.202 85.4414 126.308 82.7694 127.578C82.7428 126.65 82.4655 126.196 81.9375 126.218C84.5508 125.023 85.8441 123.242 85.8174 120.874C86.1748 118.836 85.8281 116.794 84.7774 114.746C85.5668 113.935 84.7508 112.847 82.3294 111.482C82.9321 111.332 83.3055 111.02 83.4495 110.546C83.5401 110.236 83.4494 109.991 83.1774 109.81L81.5694 108.714C81.3454 108.559 81.0948 108.474 80.8174 108.458C71.3774 107.962 62.7695 111.37 60.8095 121.41C60.7615 121.655 60.6548 121.874 60.4895 122.066C58.4255 124.53 57.4761 127.079 57.6415 129.714C57.7321 131.09 57.7321 132.162 57.6415 132.93C57.6313 133.014 57.593 133.092 57.5327 133.152C57.4723 133.212 57.3936 133.249 57.3092 133.259C57.2248 133.268 57.1398 133.248 57.0679 133.203C56.9961 133.158 56.9417 133.09 56.9135 133.01C56.4921 131.831 56.2041 130.634 56.0495 129.418C56.0121 129.156 55.8628 129.036 55.6015 129.058C55.4255 129.079 55.2228 129.167 54.9935 129.322L53.3055 111.81C53.2841 104.844 53.2734 97.863 53.2734 90.8656C53.2734 83.2976 55.6334 76.7216 63.4814 74.2416C66.3774 73.3296 72.9028 71.991 83.0575 70.2256L83.0654 71.7136C83.0654 71.9216 83.1668 72.0123 83.3694 71.9856C95.6174 70.4336 108.417 66.9136 118.337 59.9616C118.577 59.7963 118.737 59.575 118.817 59.2976C119.111 58.3056 119.788 57.6923 120.849 57.4576C121.105 57.4012 121.373 57.4471 121.593 57.5856C126.737 60.8176 131.857 64.4336 137.273 66.6656C140.799 68.1163 144.98 69.6603 149.817 71.2976C156.857 73.6816 158.225 78.8096 158.457 86.1056C158.644 91.9616 158.727 97.8123 158.705 103.658C158.697 104.674 159.273 105.498 159.321 106.578C159.332 106.839 159.468 106.988 159.729 107.026L159.985 107.058C160.188 107.084 160.292 107.204 160.297 107.418L160.345 109.474ZM64.5935 98.9056C62.5055 101.13 60.6654 102.682 62.2734 105.394C62.3068 105.451 62.354 105.5 62.4108 105.534C62.4676 105.569 62.5323 105.589 62.5994 105.593C62.6664 105.597 62.7337 105.585 62.7955 105.557C62.8572 105.529 62.9114 105.487 62.9535 105.434C66.8335 100.322 70.2895 96.4256 77.0095 96.5376C78.7215 96.5696 80.8414 97.4016 82.8734 97.5056C83.1454 97.5216 83.3855 97.4363 83.5935 97.2496C86.3135 94.8176 83.5294 91.4416 80.6654 91.5856C74.2388 91.911 68.8815 94.351 64.5935 98.9056ZM130.697 91.7616C124.969 91.0976 124.481 99.1296 130.345 97.5536C138.321 95.4096 144.145 99.0656 148.681 105.442C148.857 105.687 149.06 105.711 149.289 105.514C150.74 104.26 150.78 102.876 149.409 101.362C144.375 95.8203 138.137 92.6203 130.697 91.7616Z" fill="#FBB380"/>
<path d="M14.2378 86.999C14.9944 86.89 15.5412 86.3408 15.4593 85.7723C15.3774 85.2038 14.6977 84.8313 13.9411 84.9403C13.1846 85.0493 12.6377 85.5986 12.7196 86.1671C12.8015 86.7356 13.4813 87.1081 14.2378 86.999Z" fill="#F1E8B9"/>
<path d="M35.5617 89.4653C35.9244 89.8813 36.095 90.3107 36.0737 90.7533C36.0639 90.8897 36.016 91.0205 35.9353 91.1308C35.8547 91.2412 35.7446 91.3266 35.6176 91.3773L33.8176 92.0653C19.8416 96.9773 13.3537 112.041 15.0897 126.097L15.1617 127.441L15.0656 127.929C15.0176 128.185 14.8657 128.297 14.6097 128.265L14.4097 128.233C14.303 128.223 14.247 128.164 14.2417 128.057C13.6497 117.953 14.1697 112.209 18.8417 103.553C22.5323 96.7213 28.1057 92.0253 35.5617 89.4653Z" fill="#FCE4AD"/>
<path d="M64.5936 98.9055C68.8816 94.3509 74.2389 91.9108 80.6656 91.5855C83.5296 91.4415 86.3136 94.8175 83.5936 97.2495C83.3856 97.4362 83.1456 97.5215 82.8736 97.5055C80.8416 97.4015 78.7217 96.5695 77.0097 96.5375C70.2897 96.4255 66.8336 100.322 62.9536 105.434C62.9116 105.487 62.8574 105.529 62.7956 105.557C62.7339 105.585 62.6666 105.597 62.5995 105.593C62.5325 105.589 62.4678 105.569 62.411 105.534C62.3542 105.499 62.307 105.451 62.2736 105.394C60.6656 102.682 62.5056 101.13 64.5936 98.9055Z" fill="#2D0909"/>
<path d="M130.346 97.5533C124.482 99.1293 124.97 91.0973 130.698 91.7613C138.138 92.6199 144.375 95.8199 149.41 101.361C150.78 102.876 150.74 104.26 149.29 105.513C149.06 105.711 148.858 105.687 148.682 105.441C144.146 99.0653 138.322 95.4093 130.346 97.5533Z" fill="#2D0909"/>
<path d="M33.8181 92.0654L36.3062 92.4334C36.5248 92.4654 36.6742 92.5854 36.7542 92.7934C38.1622 96.5321 39.0395 100.401 39.3862 104.401C39.3984 104.524 39.3825 104.648 39.3395 104.764C39.2966 104.881 39.2278 104.986 39.1382 105.073C37.8902 106.284 37.4048 107.737 37.6822 109.433C37.7302 109.727 37.6448 109.975 37.4262 110.177C34.3168 113.105 32.0528 116.596 30.6342 120.649C30.5595 120.873 30.4208 121.047 30.2181 121.169C27.2261 123.049 28.6662 130.865 29.3782 134.297C29.3901 134.354 29.3908 134.413 29.3804 134.47C29.3699 134.527 29.3484 134.581 29.3172 134.629C29.2859 134.678 29.2456 134.719 29.1984 134.752C29.1512 134.784 29.0981 134.806 29.0422 134.817C26.2182 135.441 26.7542 141.033 26.8262 143.545C26.8368 143.86 26.6902 144.057 26.3862 144.137C24.4582 144.657 22.8822 144.177 21.9142 142.289C19.2955 137.196 17.3382 131.847 16.0422 126.241C16.0146 126.13 15.9501 126.032 15.8597 125.964C15.7694 125.895 15.6586 125.861 15.5462 125.865C15.3648 125.871 15.2128 125.948 15.0902 126.097C13.3542 112.041 19.8421 96.9774 33.8181 92.0654ZM32.0982 98.5694C24.5062 102.089 17.4582 113.497 18.8982 122.177C18.9515 122.503 19.1302 122.604 19.4342 122.481C20.7782 121.943 21.9515 120.953 22.9542 119.513C24.7942 116.857 40.0502 96.8014 32.4822 98.4414C32.3493 98.468 32.2204 98.511 32.0982 98.5694Z" fill="#2E1319"/>
<path d="M18.8974 122.177C17.4574 113.497 24.5054 102.089 32.0974 98.5694C32.2196 98.511 32.3485 98.468 32.4814 98.4414C40.0494 96.8014 24.7934 116.857 22.9534 119.513C21.9507 120.953 20.7774 121.943 19.4334 122.481C19.1294 122.604 18.9507 122.503 18.8974 122.177Z" fill="#B26A35"/>
<path d="M82.3301 111.482C73.2661 104.882 54.7062 119.194 65.1062 125.21C66.6208 127.274 68.2955 128.202 70.1301 127.994C74.4235 129.071 78.6368 128.932 82.7701 127.578C85.4421 126.308 87.2074 124.202 88.0661 121.258C88.1301 121.039 88.2181 121.028 88.3301 121.226C88.9141 122.234 91.5062 121.234 92.5142 121.226C92.7382 121.226 92.9355 121.154 93.1062 121.01C94.8715 119.495 96.7195 119.439 98.6501 120.842C98.7476 120.912 98.8625 120.955 98.9833 120.966C99.1042 120.977 99.2266 120.957 99.3381 120.906C100.837 120.218 102.485 120.351 104.282 121.306C105.039 121.706 105.738 121.508 106.378 120.714C106.455 120.615 106.558 120.54 106.675 120.496C106.792 120.453 106.919 120.442 107.042 120.466C108.906 120.802 110.746 119.634 111.826 121.922C111.922 122.13 111.866 122.282 111.658 122.378L111.298 122.546C111.231 122.579 111.176 122.633 111.141 122.699C111.107 122.766 111.094 122.842 111.106 122.916C111.117 122.99 111.153 123.059 111.206 123.111C111.259 123.164 111.328 123.199 111.402 123.21C113.738 123.54 116.103 123.788 118.498 123.954C118.762 123.974 119.011 124.087 119.202 124.274L119.538 124.618C119.773 124.847 119.89 124.796 119.89 124.466V123.242C119.891 123.112 119.936 122.985 120.019 122.884C120.101 122.782 120.215 122.712 120.342 122.684C120.469 122.657 120.601 122.675 120.715 122.734C120.829 122.793 120.92 122.891 120.97 123.01C121.423 124.039 122.194 124.396 123.282 124.082C123.533 124.012 123.759 124.052 123.962 124.202L126.394 125.97C126.602 126.119 126.831 126.218 127.082 126.266C128.586 126.554 129.058 128.754 130.666 128.626C131.205 128.583 131.242 128.426 130.778 128.154C128.783 126.986 127.165 125.418 125.922 123.45C125.878 123.385 125.861 123.305 125.875 123.228C125.889 123.151 125.933 123.082 125.998 123.038C126.063 122.993 126.143 122.976 126.22 122.99C126.297 123.005 126.366 123.049 126.41 123.114C126.549 123.295 126.682 123.543 126.81 123.858C128.767 126.37 131.173 127.855 134.026 128.314C138.346 129.01 145.858 128.17 148.954 124.514C150.463 124.055 151.325 123.055 151.538 121.514C151.57 121.274 151.706 121.13 151.946 121.082C152.287 121.023 152.378 121.18 152.218 121.554C152.157 121.697 152.127 121.851 152.132 122.007C152.137 122.162 152.176 122.315 152.246 122.454C152.316 122.592 152.416 122.714 152.538 122.81C152.661 122.906 152.803 122.974 152.954 123.01C154.65 123.415 156.367 123.78 158.106 124.106C158.405 124.159 158.522 124.332 158.458 124.626L158.378 125.034C155.81 135.226 150.666 139.426 142.642 145.802C134.41 152.338 123.69 156.154 113.482 158.13C109.658 158.874 105.434 158.746 101.402 158.858C95.6821 159.018 90.9301 158.066 85.5941 156.682C85.5362 156.666 85.4752 156.67 85.4199 156.692C85.3646 156.714 85.3179 156.754 85.2866 156.806C85.2554 156.858 85.2412 156.919 85.2461 156.98C85.2511 157.041 85.2749 157.099 85.3142 157.146C85.7355 157.636 86.2768 157.975 86.9381 158.162C87.1461 158.22 87.3568 158.252 87.5701 158.258C88.4768 158.268 89.2528 158.666 89.8981 159.45C75.3941 156.882 60.6662 149.674 55.5622 135.074L54.9941 129.322C55.2235 129.167 55.4261 129.079 55.6021 129.058C55.8635 129.036 56.0128 129.156 56.0501 129.418C56.2048 130.634 56.4928 131.831 56.9142 133.01C56.9423 133.09 56.9967 133.158 57.0686 133.203C57.1405 133.248 57.2255 133.268 57.3099 133.259C57.3943 133.249 57.473 133.212 57.5333 133.152C57.5937 133.092 57.632 133.014 57.6421 132.93C57.7328 132.162 57.7328 131.09 57.6421 129.714C57.4768 127.079 58.4261 124.53 60.4901 122.066C60.6555 121.874 60.7622 121.655 60.8102 121.41C62.7702 111.37 71.3781 107.962 80.8181 108.458C81.0954 108.474 81.3461 108.559 81.5701 108.714L83.1781 109.81C83.4501 109.991 83.5408 110.236 83.4501 110.546C83.3061 111.02 82.9328 111.332 82.3301 111.482ZM108.482 135.922C105.922 136.434 104.754 137.13 101.866 135.57C101.818 135.543 101.762 135.533 101.707 135.542C101.653 135.551 101.602 135.577 101.565 135.618C101.527 135.658 101.504 135.71 101.499 135.765C101.494 135.82 101.508 135.875 101.538 135.922C102.93 138.098 106.746 137.186 108.578 136.178C109.101 135.884 109.069 135.799 108.482 135.922ZM96.3142 144.538C95.9728 144.068 95.5088 143.628 94.9221 143.218C94.4528 142.892 94.3728 142.97 94.6821 143.45C98.2901 149.026 102.85 153.154 110.026 150.986C113.109 150.058 115.247 147.882 116.442 144.458C116.97 143.748 117.237 143.364 117.242 143.306C117.402 142.234 116.975 141.892 115.962 142.282C108.57 145.13 103.674 144.306 96.3142 144.538Z" fill="#FCC093"/>
<path d="M140.154 109.713C133.986 110.569 127.882 111.849 128.09 119.049C128.143 120.937 128.922 122.316 130.426 123.185C130.639 123.777 130.999 124.193 131.506 124.433C131.703 124.524 131.903 124.532 132.106 124.457L137.762 122.377C137.993 122.29 138.248 122.296 138.474 122.393L139.778 122.961C135.644 127.703 131.626 127.863 127.722 123.441C123.458 114.569 131.146 106.537 140.154 109.713Z" fill="#932318"/>
<path d="M52.7771 111.473C52.1851 111.649 51.6865 111.959 51.2812 112.401C51.1158 112.583 51.0252 112.799 51.0092 113.049L50.7532 117.761C50.7373 117.989 50.7672 118.22 50.8412 118.441C51.0545 119.076 50.8545 119.532 50.2412 119.809C46.3692 121.561 42.1531 123.449 42.2651 128.273C42.3771 133.377 48.4092 135.249 52.4412 135.401C52.7166 135.412 52.9885 135.333 53.2171 135.177L54.2492 134.481C54.4998 134.311 54.6705 134.369 54.7612 134.657L55.0332 135.521C45.7692 139.153 38.5478 137.02 33.3691 129.121L33.8171 128.593C33.9771 128.407 34.0305 128.193 33.9771 127.953C32.5318 121.532 34.8678 115.996 40.9852 111.345C44.5692 109.212 48.4998 109.255 52.7771 111.473Z" fill="#F89564"/>
<path d="M82.3302 111.481C84.7515 112.847 85.5675 113.935 84.7782 114.745C82.5008 112.628 80.1195 111.863 77.6342 112.449C75.8795 111.943 74.4342 111.873 73.2982 112.241C66.7915 114.343 63.9569 118.631 64.7942 125.105C64.8955 125.143 64.9995 125.177 65.1062 125.209C54.7062 119.193 73.2662 104.881 82.3302 111.481Z" fill="#4C1813"/>
<path d="M140.153 109.713C145.599 111.356 149.142 114.777 150.785 119.977C150.87 120.233 150.87 120.492 150.785 120.753C150.46 121.772 149.817 122.62 148.857 123.297C148.404 117.425 145.673 113.548 140.665 111.665C138.913 111.009 131.545 112.585 135.921 115.465C136.134 115.604 136.356 115.623 136.585 115.521L137.697 115.033C138.092 115.044 138.289 115.188 138.289 115.465C138.31 120.687 135.689 123.26 130.425 123.185C128.921 122.316 128.142 120.937 128.089 119.049C127.881 111.849 133.985 110.569 140.153 109.713Z" fill="#2D0909"/>
<path d="M113.641 160.922L98.1691 160.714L89.8971 159.45C89.2518 158.666 88.4757 158.268 87.5691 158.258C87.3557 158.252 87.1451 158.22 86.9371 158.162C86.2758 157.975 85.7345 157.636 85.3131 157.146C85.2739 157.099 85.2501 157.041 85.2451 156.98C85.2402 156.919 85.2543 156.858 85.2856 156.806C85.3168 156.754 85.3635 156.714 85.4188 156.692C85.4741 156.669 85.5352 156.666 85.5931 156.682C90.9291 158.066 95.6811 159.018 101.401 158.858C105.433 158.746 109.657 158.874 113.481 158.13C123.689 156.154 134.409 152.338 142.641 145.802C150.665 139.426 155.809 135.226 158.377 125.034C158.681 124.996 159.009 124.818 159.361 124.498L158.361 134.106C158.339 134.313 158.371 134.527 158.454 134.721C158.536 134.915 158.665 135.081 158.825 135.198C158.984 135.315 159.167 135.378 159.351 135.378C159.535 135.379 159.711 135.317 159.857 135.202C160.209 134.93 160.462 135.012 160.617 135.45C160.691 135.659 160.835 135.836 161.024 135.951C161.214 136.067 161.437 136.113 161.657 136.082C166.18 135.442 169.529 133.316 171.705 129.706C175.065 124.13 170.913 120.634 166.073 119.002C166.193 116.45 167.393 111.554 169.961 110.258C173.153 108.65 177.841 111.314 180.049 113.706C184.889 118.97 184.969 125.186 180.809 130.954C176.505 136.916 170.308 138.988 162.217 137.17C161.934 137.106 161.665 137.002 161.409 136.858L159.593 135.858C159.252 135.666 158.996 135.746 158.825 136.098C150.353 153.242 131.273 159.546 113.641 160.922Z" fill="#F89564"/>
<path d="M40.9861 111.345C34.8688 115.996 32.5328 121.532 33.9781 127.953C34.0314 128.193 33.9781 128.407 33.8181 128.593L33.3701 129.121C30.4981 121.497 33.5221 114.217 40.9861 111.345Z" fill="#F7CD97"/>
<path d="M148.858 123.297C148.703 123.671 148.735 124.076 148.954 124.513C145.858 128.169 138.346 129.009 134.026 128.313C131.172 127.855 128.767 126.369 126.81 123.857L127.722 123.441C131.626 127.863 135.644 127.703 139.778 122.961C141.378 120.793 142.41 115.969 139.69 114.001C139.578 113.921 139.443 113.88 139.305 113.884C139.168 113.888 139.036 113.938 138.93 114.025L137.698 115.033L136.586 115.521C136.356 115.623 136.135 115.604 135.922 115.465C131.546 112.585 138.914 111.009 140.666 111.665C145.674 113.548 148.404 117.425 148.858 123.297Z" fill="#F8F5F3"/>
<path d="M52.7779 111.474C52.7299 111.794 52.9059 111.906 53.3059 111.81L54.9939 129.322L55.5619 135.074C55.0179 135.068 54.8419 135.218 55.0339 135.522L54.7619 134.658C54.6712 134.37 54.5006 134.311 54.2499 134.482L53.2179 135.178C52.9893 135.333 52.7173 135.412 52.4419 135.402C48.4099 135.25 42.3779 133.378 42.2659 128.274C42.1539 123.45 46.3699 121.562 50.2419 119.81C50.8552 119.532 51.0552 119.076 50.8419 118.442C50.7679 118.22 50.738 117.989 50.7539 117.762L51.0099 113.05C51.0259 112.799 51.1165 112.583 51.2819 112.402C51.6872 111.959 52.1859 111.65 52.7779 111.474Z" fill="#EA8359"/>
<path d="M77.6336 112.45C77.9216 115.202 77.1749 116.772 75.3936 117.162C74.7269 116.762 74.5056 115.951 74.7296 114.73C74.7776 114.463 74.6656 114.33 74.3936 114.33C73.4549 114.335 72.8523 114.759 72.5856 115.602C71.0976 120.346 73.6416 124.306 77.6736 126.45C79.0709 127.196 80.4923 127.119 81.9376 126.218C82.4656 126.196 82.7429 126.65 82.7696 127.578C78.6362 128.932 74.4229 129.071 70.1296 127.994L64.7936 125.106C63.9563 118.631 66.7909 114.343 73.2976 112.242C74.4336 111.874 75.8789 111.943 77.6336 112.45Z" fill="#F8F5F3"/>
<path d="M84.7777 114.746C85.8284 116.794 86.1751 118.836 85.8177 120.874C83.1084 124.1 80.3804 124.82 77.6337 123.034C77.4044 122.884 77.2231 122.69 77.0898 122.45C76.8551 122.039 76.5244 121.724 76.0978 121.506C75.8684 121.388 75.6951 121.215 75.5777 120.986C74.9377 119.7 74.8764 118.426 75.3938 117.162C77.1751 116.772 77.9217 115.202 77.6337 112.45C80.1191 111.863 82.5004 112.628 84.7777 114.746Z" fill="#2D0909"/>
<path d="M139.778 122.961L138.474 122.393C138.248 122.296 137.993 122.29 137.762 122.377L132.106 124.457C131.903 124.532 131.703 124.524 131.506 124.433C130.999 124.193 130.639 123.777 130.426 123.185C135.69 123.26 138.311 120.687 138.29 115.465C138.29 115.188 138.092 115.044 137.698 115.033L138.93 114.025C139.036 113.938 139.168 113.888 139.306 113.884C139.443 113.88 139.578 113.921 139.69 114.001C142.41 115.969 141.378 120.793 139.778 122.961Z" fill="#6D261A"/>
<path d="M75.3937 117.161C74.8764 118.425 74.9377 119.7 75.5777 120.985C75.695 121.214 75.8684 121.388 76.0977 121.505C76.5244 121.724 76.855 122.038 77.0897 122.449C77.223 122.689 77.4043 122.884 77.6337 123.033C80.3803 124.82 83.1083 124.1 85.8177 120.873C85.8443 123.241 84.551 125.022 81.9377 126.217C80.4923 127.118 79.071 127.196 77.6737 126.449C73.6417 124.305 71.0977 120.345 72.5857 115.601C72.8523 114.758 73.455 114.334 74.3937 114.329C74.6657 114.329 74.7777 114.462 74.7297 114.729C74.5057 115.95 74.727 116.761 75.3937 117.161Z" fill="#6D261A"/>
<path d="M160.649 117.777C161.572 121.127 162.927 123.892 164.713 126.073C164.86 126.252 165.054 126.387 165.273 126.465C166.74 126.983 167.26 126.455 166.833 124.881C166.327 122.988 166.073 121.028 166.073 119.001C170.913 120.633 175.065 124.129 171.705 129.705C169.529 133.316 166.18 135.441 161.657 136.081C161.438 136.112 161.214 136.066 161.024 135.951C160.835 135.836 160.691 135.659 160.617 135.449C160.463 135.012 160.209 134.929 159.857 135.201C159.711 135.317 159.535 135.379 159.351 135.378C159.167 135.378 158.984 135.315 158.825 135.198C158.665 135.081 158.536 134.915 158.454 134.721C158.371 134.526 158.339 134.312 158.361 134.105L159.361 124.497C159.18 121.884 159.609 119.644 160.649 117.777Z" fill="#EA8359"/>
<path d="M65.106 125.209C64.9993 125.177 64.8953 125.143 64.7939 125.105L70.1299 127.993C68.2953 128.201 66.6206 127.273 65.106 125.209Z" fill="#B26A35"/>
<path d="M19.9218 142.865C22.9885 148.86 27.1032 154.268 32.2658 159.089C45.0738 171.033 58.4338 184.041 67.4818 200.057C68.3938 201.673 68.4018 203.513 68.7938 205.297C68.9538 205.932 68.9565 206.583 68.8018 207.249C68.8445 207.708 68.6712 208.26 68.2818 208.905C51.4818 202.388 37.2018 192.188 25.4418 178.305C16.0872 167.265 9.35652 154.785 5.24985 140.865L3.29785 132.865C3.68185 132.988 4.00984 133.233 4.28184 133.601C4.4525 133.836 4.61783 133.833 4.77783 133.593L5.82583 132.033C5.96983 131.815 6.16983 131.705 6.42583 131.705C9.40183 131.681 9.76982 126.193 13.4178 129.393C13.7165 129.655 14.0258 129.783 14.3458 129.777C14.4738 129.777 14.5485 129.841 14.5698 129.969C15.3218 134.465 16.7512 138.729 18.8579 142.761C18.9912 143.012 19.1965 143.121 19.4738 143.089C19.6552 143.063 19.8045 142.988 19.9218 142.865Z" fill="#5DA491"/>
<path d="M101.866 135.569C104.754 137.129 105.922 136.433 108.482 135.921C109.069 135.799 109.101 135.884 108.578 136.177C106.746 137.185 102.93 138.097 101.538 135.921C101.508 135.875 101.494 135.82 101.499 135.765C101.504 135.71 101.527 135.658 101.565 135.618C101.602 135.577 101.652 135.55 101.707 135.542C101.762 135.533 101.818 135.543 101.866 135.569Z" fill="#CF7253"/>
<path d="M116.441 144.458C112.105 145.866 99.9855 148.122 96.3135 144.538C103.673 144.306 108.569 145.13 115.961 142.282C116.975 141.892 117.401 142.234 117.241 143.306C117.236 143.364 116.969 143.748 116.441 144.458Z" fill="#EA8359"/>
<path d="M96.3134 144.538C99.9854 148.122 112.105 145.866 116.441 144.458C115.247 147.882 113.108 150.058 110.025 150.986C102.849 153.154 98.2894 149.026 94.6814 143.45C94.3721 142.97 94.4521 142.892 94.9214 143.218C95.5081 143.628 95.9721 144.068 96.3134 144.538ZM104.113 149.97C104.007 150.204 104.073 150.375 104.313 150.482C105.953 151.234 111.161 150.386 112.049 148.77C112.225 148.45 112.132 148.298 111.769 148.314C110.081 148.386 104.881 148.282 104.113 149.97Z" fill="#510607"/>
<path d="M104.114 149.97C104.882 148.282 110.082 148.386 111.77 148.314C112.132 148.298 112.226 148.45 112.05 148.77C111.162 150.386 105.954 151.234 104.314 150.482C104.074 150.375 104.007 150.204 104.114 149.97Z" fill="#BE3624"/>
<path d="M198.69 162.929C187.021 183.863 170.005 198.601 147.642 207.145C145.378 197.801 142.338 191.369 140.346 184.673C140.255 184.359 140.367 184.167 140.682 184.097L141.298 183.961C161.402 186.361 179.666 179.633 189.77 161.569C190.42 161.537 190.893 161.265 191.186 160.753C191.287 160.577 191.418 160.433 191.578 160.321L194.018 158.577C194.252 158.412 194.45 158.449 194.61 158.689C195.213 159.639 195.498 160.711 195.466 161.905C195.465 161.967 195.479 162.028 195.507 162.084C195.535 162.139 195.575 162.187 195.626 162.223C195.676 162.259 195.734 162.283 195.796 162.291C195.857 162.3 195.919 162.294 195.978 162.273L196.546 162.057C196.781 161.972 196.978 162.028 197.138 162.225C197.533 162.716 198.05 162.951 198.69 162.929Z" fill="#5DA491"/>
<path d="M113.642 160.921C113.007 162.537 113.178 163.935 114.154 165.113C111.554 165.753 98.41 167.257 97.418 164.249C97.9406 163.183 98.1913 162.004 98.17 160.713L113.642 160.921Z" fill="#CF7253"/>
<path d="M97.4172 164.25C98.4092 167.258 111.553 165.754 114.153 165.114C115.481 165.25 118.569 165.098 117.649 166.626L116.377 170.418L115.617 167.65C115.584 167.524 115.521 167.409 115.434 167.313C115.348 167.216 115.24 167.142 115.119 167.095C114.998 167.048 114.868 167.031 114.739 167.044C114.61 167.057 114.486 167.1 114.377 167.17C111.193 169.207 108.297 171.583 105.689 174.298C105.513 174.479 105.335 174.481 105.153 174.305L97.4252 166.785C97.2066 166.577 97.0173 166.346 96.8573 166.09L96.1133 164.89C96.6253 164.874 97.0599 164.66 97.4172 164.25Z" fill="#E27D47"/>
<path d="M96.1137 164.89L96.8577 166.09C97.0177 166.346 97.207 166.578 97.4256 166.786L105.154 174.306C105.335 174.482 105.514 174.479 105.69 174.298C108.298 171.583 111.194 169.207 114.378 167.17C114.487 167.1 114.611 167.057 114.74 167.044C114.868 167.031 114.999 167.048 115.119 167.095C115.24 167.142 115.348 167.217 115.435 167.313C115.521 167.409 115.584 167.525 115.618 167.65L116.378 170.418C114.53 175.402 109.762 182.042 104.458 183.346C103.279 183.634 102.37 183.538 101.73 183.058C95.9163 178.695 93.0336 172.831 93.0816 165.466L96.1137 164.89Z" fill="#EF8D50"/>
<path d="M93.0819 165.465C93.0339 172.831 95.9166 178.695 101.73 183.057C102.37 183.537 103.279 183.633 104.458 183.345C109.762 182.041 114.53 175.401 116.378 170.417L117.65 166.625C118.007 166.988 118.365 166.9 118.722 166.361C118.882 166.121 119.106 166.025 119.394 166.073L121.794 166.489C121.634 172.201 120.09 180.961 115.722 184.569C115.519 184.735 115.303 184.751 115.074 184.617C114.327 184.175 113.922 183.5 113.858 182.593C113.855 182.514 113.824 182.439 113.771 182.381C113.717 182.322 113.645 182.284 113.567 182.274C113.489 182.263 113.409 182.281 113.342 182.323C113.276 182.365 113.226 182.43 113.202 182.505L110.898 188.713C110.845 188.856 110.756 188.983 110.641 189.083C110.526 189.182 110.388 189.252 110.239 189.284C110.09 189.317 109.936 189.312 109.79 189.269C109.643 189.227 109.51 189.149 109.402 189.041C107.434 187.057 104.826 185.153 102.458 188.033C99.498 191.649 96.4579 184.617 96.0179 182.513C95.9956 182.411 95.9461 182.316 95.8745 182.24C95.803 182.163 95.7121 182.107 95.6114 182.077C95.5108 182.048 95.404 182.046 95.3024 182.072C95.2007 182.098 95.108 182.151 95.0339 182.225L93.4259 183.833C93.3124 183.946 93.1759 184.032 93.0259 184.086C92.8759 184.141 92.7161 184.162 92.5576 184.148C92.3991 184.134 92.2458 184.086 92.1084 184.007C91.9709 183.928 91.8527 183.819 91.762 183.689C88.274 178.713 88.1139 173.857 88.4419 166.609L93.0819 165.465Z" fill="#694B25"/>
<path d="M88.4413 166.609C88.1133 173.857 88.2733 178.713 91.7613 183.689C91.852 183.819 91.9702 183.928 92.1077 184.007C92.2451 184.086 92.3984 184.134 92.5569 184.148C92.7154 184.162 92.8753 184.141 93.0252 184.086C93.1752 184.032 93.3117 183.946 93.4252 183.833L95.0333 182.225C95.1073 182.151 95.2 182.098 95.3017 182.072C95.4033 182.046 95.5101 182.048 95.6107 182.077C95.7114 182.107 95.8023 182.163 95.8738 182.239C95.9454 182.316 95.9949 182.411 96.0172 182.513C96.4572 184.617 99.4973 191.649 102.457 188.033C104.825 185.153 107.433 187.057 109.401 189.041C109.509 189.148 109.643 189.227 109.789 189.269C109.935 189.312 110.09 189.317 110.238 189.284C110.387 189.252 110.525 189.182 110.641 189.083C110.756 188.983 110.844 188.856 110.897 188.713L113.201 182.505C113.225 182.43 113.275 182.365 113.342 182.323C113.408 182.281 113.488 182.263 113.566 182.274C113.645 182.284 113.717 182.322 113.77 182.381C113.823 182.439 113.854 182.514 113.857 182.593C113.921 183.5 114.327 184.175 115.073 184.617C115.303 184.751 115.519 184.735 115.721 184.569C120.089 180.961 121.633 172.201 121.793 166.489C130.012 169.7 135.873 175.335 139.377 183.393C139.495 183.665 139.7 183.815 139.993 183.841L141.297 183.961L140.681 184.097C140.367 184.167 140.255 184.359 140.345 184.673C142.337 191.369 145.377 197.801 147.641 207.145C144.159 208.777 140.649 209.996 137.113 210.801C136.836 210.86 136.687 210.751 136.665 210.473C136.425 207.265 135.409 198.497 131.393 197.369L133.057 185.041C133.069 184.942 133.047 184.842 132.994 184.758C132.942 184.673 132.862 184.609 132.768 184.575C132.674 184.542 132.572 184.541 132.478 184.574C132.383 184.606 132.303 184.669 132.249 184.753C132.009 185.148 131.657 185.199 131.193 184.905C130.985 184.772 130.828 184.593 130.721 184.369C129.095 180.951 127.991 177.108 127.409 172.841C127.383 172.644 127.263 172.54 127.049 172.529C126.879 172.524 126.801 172.607 126.817 172.777L129.321 200.865L129.505 212.761C114.263 216.148 98.9906 216.199 83.6893 212.913C83.5722 212.889 83.4672 212.825 83.3927 212.731C83.3182 212.637 83.2788 212.521 83.2812 212.401L83.4252 203.321C83.5639 197.679 84.1719 192.127 85.2493 186.665C85.3719 186.047 85.3426 186.039 85.1613 186.641L79.9133 203.953L79.0093 211.377C79.0032 211.429 78.9858 211.479 78.9586 211.523C78.9313 211.568 78.8948 211.606 78.8514 211.635C78.8081 211.663 78.759 211.683 78.7075 211.691C78.656 211.699 78.6034 211.696 78.5533 211.681L68.2812 208.905C68.6706 208.26 68.8439 207.708 68.8013 207.249L69.3373 208.097C69.5293 208.396 69.6653 208.372 69.7453 208.025C70.0866 206.633 70.3639 204.535 70.5772 201.729C70.9052 197.425 73.0572 188.401 74.0252 184.881C75.6572 178.972 78.5399 173.697 82.6732 169.057L88.4413 166.609Z" fill="#A69141"/>
<path d="M82.6739 169.058C78.5406 173.698 75.6579 178.972 74.0259 184.882C73.0579 188.402 70.9059 197.426 70.5779 201.73C70.3646 204.535 70.0873 206.634 69.7459 208.026C69.6659 208.372 69.5299 208.396 69.3379 208.098L68.802 207.25C68.9566 206.583 68.9539 205.932 68.7939 205.298C69.3539 195.29 72.3539 173.802 82.6739 169.058Z" fill="#FCC093"/>
<path d="M131.394 197.37C130.748 197.476 130.271 197.858 129.962 198.514C129.946 199.287 129.732 200.071 129.321 200.866L126.817 172.778C126.801 172.607 126.879 172.524 127.05 172.53C127.263 172.54 127.383 172.644 127.41 172.842C127.991 177.108 129.095 180.951 130.721 184.37C130.828 184.594 130.986 184.772 131.194 184.906C131.658 185.199 132.01 185.148 132.25 184.754C132.303 184.67 132.384 184.606 132.478 184.574C132.572 184.542 132.674 184.542 132.768 184.576C132.862 184.609 132.942 184.673 132.994 184.758C133.047 184.843 133.069 184.943 133.058 185.042L131.394 197.37Z" fill="#7F8060"/>
<path d="M83.426 203.321C82.738 202.943 82.1513 202.791 81.666 202.865C81.3887 202.908 81.194 203.06 81.082 203.321C80.7994 204.004 80.4101 204.215 79.9141 203.953L85.1621 186.641C85.3434 186.039 85.3727 186.047 85.25 186.665C84.1727 192.127 83.5647 197.679 83.426 203.321Z" fill="#220509"/>
<path d="M129.961 198.514C130.132 200.258 131.183 201.204 133.113 201.354C133.458 201.379 133.785 201.518 134.041 201.75C134.298 201.982 134.47 202.293 134.529 202.634L135.945 210.746C136.004 211.06 135.876 211.255 135.561 211.33L129.505 212.762L129.321 200.866C129.732 200.071 129.945 199.287 129.961 198.514Z" fill="#507B65"/>
</svg>
