<svg width="211" height="87" viewBox="0 0 211 87" fill="none" xmlns="http://www.w3.org/2000/svg">
<rect x="0.40686" y="0.147827" width="210.593" height="86.3028" rx="43.1514" fill="#B2D3D6"/>
<circle cx="45.5" cy="43.5" r="35.5" fill="#EDFEFF"/>
<path d="M56.1899 23.0433L64.0833 31.5621V63.9568H34.5964V64.0626H64.184V31.6693L56.1899 23.0433Z" fill="#909090"/>
<path d="M54.273 23.235C55.3499 23.235 56.378 23.684 57.1098 24.474L62.7555 30.568C63.4178 31.2829 63.7858 32.2215 63.7858 33.1961V59.7922C63.7858 61.9279 62.0544 63.6593 59.9187 63.6593H38.6602C36.5244 63.6593 34.7931 61.9279 34.7931 59.7922V27.1021C34.7931 24.9663 36.5244 23.235 38.6602 23.235H54.273Z" fill="#D50202" stroke="#A85353" stroke-width="0.594937"/>
<path d="M34.2785 25.1407H25.2133V35.1679H53.7284V25.1407H34.2785Z" fill="#7A7B7C"/>
<path d="M53.8802 34.9973H25.3977V24.9628H53.8802V34.9973Z" fill="#DD2025"/>
<path d="M34.8418 26.6594H32.9876V33.7094H34.446V31.3315L34.768 31.3506C35.0811 31.3461 35.3912 31.2881 35.6859 31.1788C35.945 31.0877 36.1831 30.9422 36.3853 30.7514C36.5927 30.5713 36.7556 30.3428 36.8606 30.0845C37.0042 29.6567 37.0551 29.2014 37.0095 28.7509C37.0014 28.429 36.9469 28.1102 36.8478 27.805C36.7585 27.5844 36.6256 27.3856 36.4578 27.2212C36.29 27.0568 36.0909 26.9305 35.8732 26.8504C35.6855 26.7784 35.491 26.7272 35.2929 26.6976C35.1433 26.6724 34.992 26.6596 34.8404 26.6594M34.5723 30.0287H34.446V27.855H34.7198C34.8406 27.846 34.9619 27.8652 35.0746 27.9112C35.1873 27.9572 35.2886 28.0288 35.371 28.1208C35.5417 28.3573 35.6328 28.6452 35.6306 28.9404C35.6306 29.3017 35.6306 29.6292 35.3156 29.8598C35.0888 29.9892 34.8305 30.0488 34.5723 30.0287ZM39.7802 26.6403C39.6227 26.6403 39.4695 26.6521 39.3617 26.6565L39.024 26.6653H37.9175V33.7153H39.2198C39.7174 33.7285 40.2128 33.6412 40.6782 33.4583C41.0529 33.3051 41.3845 33.0571 41.6429 32.7371C41.896 32.4157 42.0768 32.0399 42.172 31.637C42.2839 31.1816 42.3383 30.7131 42.3338 30.2432C42.3615 29.6882 42.3201 29.1319 42.2103 28.5879C42.1053 28.1879 41.9109 27.8191 41.6429 27.5113C41.4326 27.2624 41.174 27.0622 40.8839 26.9238C40.6354 26.8045 40.3739 26.7167 40.105 26.6624C39.9981 26.6442 39.8899 26.6359 39.7816 26.6374M39.5234 32.4199H39.3815V27.9196H39.4C39.6924 27.8846 39.9884 27.9392 40.2512 28.0768C40.4436 28.2359 40.6005 28.4363 40.7108 28.6643C40.8299 28.9042 40.8986 29.1675 40.9123 29.4368C40.925 29.7599 40.9123 30.0243 40.9123 30.2432C40.9175 30.4952 40.9018 30.7473 40.8655 30.9966C40.8208 31.2523 40.74 31.4997 40.6257 31.731C40.4965 31.9467 40.3201 32.1278 40.1107 32.2598C39.9358 32.3773 39.7284 32.432 39.5206 32.4154M46.7274 26.6653H43.28V33.7153H44.7384V30.9188H46.5827V29.6087H44.7384V27.9754H46.7245V26.6653" fill="#464648"/>
<path d="M52.8999 49.7497C52.8999 49.7497 57.4226 48.9008 57.4226 50.5002C57.4226 52.0997 54.6208 51.4491 52.8999 49.7497ZM49.5561 49.8716C48.8374 50.0356 48.1371 50.2763 47.4664 50.5898L48.0339 49.268C48.6014 47.9461 49.1901 46.1439 49.1901 46.1439C49.8656 47.325 50.6535 48.4331 51.5423 49.4516C50.8732 49.5547 50.2102 49.696 49.5561 49.8746V49.8716ZM47.7658 40.3247C47.7658 38.9309 48.2013 38.5505 48.5404 38.5505C48.8794 38.5505 49.261 38.7194 49.2738 39.9297C49.1632 41.1466 48.9171 42.3462 48.5404 43.5046C48.0226 42.5327 47.7553 41.4391 47.7644 40.3292L47.7658 40.3247ZM41.1704 55.7701C39.783 54.9109 44.0801 52.2657 44.8589 52.1805C44.8547 52.182 42.6231 56.669 41.1704 55.7701ZM58.7434 50.6897C58.7292 50.5428 58.6015 48.9169 55.8068 48.986C54.6418 48.9648 53.4773 49.0498 52.3268 49.2401C51.2115 48.0779 50.2516 46.7664 49.4724 45.3405C49.963 43.8707 50.2603 42.3393 50.3563 40.7874C50.3151 39.0249 49.908 38.0144 48.6028 38.0291C47.2976 38.0438 47.1075 39.2261 47.2792 40.9857C47.4472 42.1681 47.7644 43.3226 48.2226 44.4196C48.2226 44.4196 47.6197 46.3628 46.8224 48.2957C46.0251 50.2285 45.4803 51.242 45.4803 51.242C44.0937 51.7087 42.7884 52.403 41.6144 53.2982C40.4455 54.4247 39.9702 55.2898 40.5859 56.1549C41.1165 56.9011 42.9735 57.07 44.6334 54.8184C45.5138 53.6543 46.3194 52.4316 47.0451 51.1582C47.0451 51.1582 49.576 50.44 50.3633 50.2432C51.1507 50.0464 52.1026 49.8907 52.1026 49.8907C52.1026 49.8907 54.4136 52.298 56.6424 52.2128C58.8711 52.1276 58.7633 50.8337 58.7491 50.6927" fill="white"/>
<path d="M55.9825 23.0507V31.6766H63.9739L55.9825 23.0507Z" fill="#909090"/>
<path d="M56.0919 22.9375V31.5635H64.0832L56.0919 22.9375Z" fill="#FF4545"/>
<path d="M34.7325 26.5464H32.8783V33.5964H34.3424V31.2199L34.6658 31.239C34.9788 31.2346 35.289 31.1765 35.5837 31.0672C35.8428 30.9761 36.0809 30.8306 36.2831 30.6398C36.4889 30.4593 36.6503 30.2307 36.7541 29.973C36.8977 29.5451 36.9486 29.0898 36.903 28.6393C36.895 28.3175 36.8404 27.9987 36.7413 27.6935C36.652 27.4729 36.5192 27.274 36.3513 27.1096C36.1835 26.9452 35.9844 26.8189 35.7667 26.7388C35.5782 26.6661 35.3827 26.6144 35.1836 26.5846C35.034 26.5593 34.8827 26.5466 34.7311 26.5464M34.4629 29.9157H34.3367V27.7419H34.6119C34.7327 27.7329 34.854 27.7521 34.9667 27.7981C35.0794 27.8442 35.1807 27.9158 35.2631 28.0078C35.4338 28.2443 35.5249 28.5321 35.5227 28.8273C35.5227 29.1887 35.5227 29.5162 35.2077 29.7468C34.9809 29.8761 34.7226 29.9343 34.4644 29.9142M39.6709 26.5273C39.5134 26.5273 39.3602 26.539 39.2524 26.5434L38.919 26.5523H37.8124V33.6023H39.1147C39.6124 33.6155 40.1078 33.5282 40.5731 33.3452C40.9478 33.192 41.2795 32.9441 41.5378 32.6241C41.791 32.3026 41.9717 31.9268 42.067 31.524C42.1789 31.0686 42.2332 30.6 42.2287 30.1301C42.2565 29.5752 42.215 29.0188 42.1053 28.4748C42.0003 28.0749 41.8059 27.7061 41.5378 27.3983C41.3276 27.1493 41.0689 26.9491 40.7788 26.8108C40.5303 26.6915 40.2688 26.6037 40 26.5493C39.8931 26.5312 39.7848 26.5228 39.6765 26.5243M39.4183 32.3068H39.2765V27.8066H39.2949C39.5874 27.7716 39.8834 27.8262 40.1461 27.9637C40.3386 28.1228 40.4954 28.3233 40.6058 28.5512C40.7249 28.7911 40.7935 29.0544 40.8072 29.3238C40.82 29.6469 40.8072 29.9113 40.8072 30.1301C40.8125 30.3822 40.7968 30.6343 40.7604 30.8836C40.7158 31.1393 40.635 31.3867 40.5206 31.618C40.3915 31.8336 40.215 32.0148 40.0057 32.1467C39.8308 32.2642 39.6234 32.3189 39.4155 32.3024M46.6181 26.5523H43.1707V33.6023H44.6291V30.8058H46.4733V29.4956H44.6291V27.8624H46.6152V26.5523" fill="white"/>
</svg>
